<?xml version="1.0" standalone="no"?>
<!DOCTYPE svg PUBLIC "-//W3C//DTD SVG 20010904//EN"
 "http://www.w3.org/TR/2001/REC-SVG-20010904/DTD/svg10.dtd">
<svg version="1.0" xmlns="http://www.w3.org/2000/svg"
 width="16.000000pt" height="16.000000pt" viewBox="0 0 16.000000 16.000000"
 preserveAspectRatio="xMidYMid meet">
<metadata>
Created by potrace 1.11, written by Peter Selinger 2001-2013
</metadata>
<g transform="translate(0.000000,16.000000) scale(0.001431,-0.001431)"
fill="#000000" stroke="none">
<path d="M5502 9591 c-51 -58 -121 -137 -156 -176 l-64 -70 -111 110 -111 110
0 -258 0 -257 530 0 530 0 0 257 0 258 -108 -108 -109 -109 -119 134 c-65 73
-135 152 -154 174 l-35 41 -93 -106z"/>
<path d="M3268 8593 l-38 -4 0 -280 0 -279 75 0 75 0 0 96 c0 84 2 95 16 90 9
-3 48 -6 87 -7 l72 0 57 -90 58 -89 70 0 c87 0 89 6 20 114 l-51 78 40 37 c45
42 55 78 49 176 -4 73 -24 108 -79 140 -31 18 -53 20 -224 21 -104 1 -207 -1
-227 -3z m368 -134 c8 -6 14 -29 14 -50 0 -59 -22 -69 -157 -69 l-113 0 0 64
0 65 53 4 c80 7 187 -1 203 -14z"/>
<path d="M7338 8593 l-38 -4 0 -280 0 -279 75 0 75 0 0 96 c0 84 2 95 16 90 9
-3 48 -6 89 -6 l72 0 57 -90 58 -90 69 0 c65 0 69 1 69 23 0 12 -22 55 -50 96
l-49 75 38 33 c47 40 67 105 56 189 -8 65 -40 108 -100 135 -34 16 -65 18
-220 17 -99 -1 -197 -3 -217 -5z m365 -129 c21 -8 32 -45 23 -79 -9 -37 -45
-46 -165 -43 l-106 3 -3 62 -3 62 58 4 c70 5 172 1 196 -9z"/>
<path d="M8033 8593 l-33 -4 0 -279 0 -278 85 -7 c47 -4 140 -5 208 -3 143 5
205 26 261 89 46 51 59 103 54 224 -4 116 -26 167 -89 211 -65 45 -117 54
-293 52 -89 0 -176 -3 -193 -5z m364 -140 c50 -24 63 -53 63 -141 0 -79 -16
-124 -51 -143 -33 -17 -149 -30 -206 -23 l-53 6 0 158 c0 117 3 160 13 164 27
13 197 -2 234 -21z"/>
<path d="M2540 8525 l0 -65 115 0 115 0 0 -215 0 -215 70 0 70 0 0 215 0 215
115 0 115 0 0 65 0 65 -300 0 -300 0 0 -65z"/>
<path d="M4091 8468 c-32 -68 -88 -185 -125 -261 -36 -76 -66 -147 -66 -158 0
-17 8 -19 64 -19 l65 0 25 55 25 55 146 0 145 0 25 -55 24 -55 65 0 c58 0 66
2 66 19 0 11 -56 136 -124 278 l-125 258 -76 3 -76 3 -58 -123z m173 -93 c58
-124 61 -115 -38 -115 -47 0 -86 4 -86 9 0 12 79 181 85 181 2 0 20 -34 39
-75z"/>
<path d="M4650 8310 l0 -280 70 0 70 0 0 280 0 280 -70 0 -70 0 0 -280z"/>
<path d="M4920 8310 l0 -280 75 0 75 0 0 181 0 181 86 -104 c47 -56 114 -138
150 -180 l65 -78 75 0 74 0 0 280 0 280 -75 0 -75 0 0 -176 c0 -97 -4 -174 -9
-172 -4 2 -72 81 -151 176 l-143 172 -73 0 -74 0 0 -280z"/>
<path d="M5860 8310 l0 -280 75 0 75 0 0 105 0 105 150 0 150 0 0 -105 0 -105
75 0 75 0 0 280 0 280 -75 0 -75 0 0 -110 0 -110 -150 0 -150 0 0 110 0 110
-75 0 -75 0 0 -280z"/>
<path d="M6679 8324 c-71 -147 -129 -273 -129 -280 0 -11 17 -14 69 -14 l69 0
23 55 23 55 146 0 146 0 27 -55 27 -55 65 0 c54 0 65 3 65 17 0 9 -57 135
-127 280 l-126 263 -74 0 -74 0 -130 -266z m250 36 c22 -50 41 -93 41 -95 0
-3 -38 -5 -85 -5 -49 0 -85 4 -85 10 0 15 74 180 81 180 3 0 25 -41 48 -90z"/>
<path d="M780 8067 c0 -11 265 -597 360 -797 56 -118 104 -223 107 -232 6 -20
14 -23 103 -38 36 -6 86 -16 113 -22 l47 -10 0 -1784 c0 -981 2 -1784 5 -1784
2 0 55 20 117 44 260 103 1151 277 1893 371 749 95 1295 128 2070 128 521 0
770 -9 1230 -43 920 -70 1848 -219 2707 -436 75 -18 139 -34 142 -34 4 0 6
796 6 1769 0 1677 1 1770 18 1774 9 3 61 13 114 23 54 10 102 20 108 24 12 8
217 443 355 755 53 121 106 237 116 258 11 20 16 37 11 37 -5 0 -126 -34 -269
-74 -2014 -577 -4035 -766 -6093 -570 -996 94 -1919 269 -2940 555 -157 44
-293 82 -302 85 -10 3 -18 3 -18 1z m597 -371 c353 -94 833 -202 1153 -261 80
-14 153 -28 163 -31 16 -5 17 -55 17 -860 l0 -854 -195 0 -195 0 0 675 0 674
-32 6 c-166 27 -532 85 -541 85 -7 0 70 -46 171 -101 l182 -100 0 -1350 0
-1349 22 0 c20 0 127 16 176 26 l22 4 0 589 0 588 61 7 c34 3 122 6 195 6
l134 0 0 -775 c0 -612 -3 -776 -12 -779 -7 -2 -143 -29 -303 -60 -159 -31
-375 -77 -480 -101 -104 -25 -193 -45 -197 -45 -5 0 -8 776 -8 1724 l0 1724
-22 5 c-13 3 -82 15 -155 28 l-131 23 -22 46 c-37 74 -240 512 -240 517 0 3 7
3 15 -1 8 -3 108 -30 222 -60z m8663 57 c0 -5 -58 -132 -128 -283 l-127 -275
-295 -52 c-162 -29 -311 -56 -330 -59 -32 -6 -27 -9 60 -29 52 -13 130 -31
173 -40 l77 -17 0 -1655 0 -1655 -22 6 c-13 3 -98 23 -190 43 l-168 38 0 1648
c0 1459 -2 1647 -15 1647 -8 0 -104 -13 -213 -29 -198 -30 -661 -89 -870 -112
-62 -6 -111 -13 -110 -15 3 -3 352 -84 362 -84 3 0 6 -166 6 -370 0 -346 1
-370 18 -370 9 0 139 7 287 15 149 8 278 15 288 15 16 0 17 -17 17 -215 l0
-215 -492 0 c-270 0 -489 -3 -485 -6 3 -3 86 -34 184 -68 l178 -62 3 -807 c2
-642 0 -807 -10 -807 -7 0 -95 12 -196 27 l-182 27 2 1655 3 1655 240 37 c511
79 1014 181 1520 309 171 44 330 85 355 93 55 18 60 19 60 10z m-6790 -437
c135 -19 328 -44 430 -56 102 -11 200 -23 218 -26 l32 -5 0 -769 0 -770 -305
0 -305 0 0 -116 0 -116 305 3 305 4 -2 -700 -3 -699 -160 -17 c-88 -10 -175
-20 -192 -23 l-33 -5 0 530 0 529 -22 0 c-53 0 -562 -31 -565 -34 -2 -2 72
-24 164 -50 93 -26 176 -50 186 -52 16 -5 17 -36 17 -478 l0 -472 -195 -30
-195 -30 0 1714 0 1715 38 -6 c20 -3 147 -21 282 -41z m4390 -530 l0 -494
-112 -6 c-62 -3 -150 -7 -195 -9 l-83 -4 0 294 0 293 -22 0 c-13 0 -122 -7
-243 -15 -121 -8 -250 -15 -287 -15 l-68 0 0 175 c0 96 1 175 3 175 97 0 981
87 1005 99 1 0 2 -221 2 -493z m-3150 399 c118 -8 296 -17 395 -20 99 -3 204
-8 233 -11 l52 -5 0 -1503 0 -1503 -214 -6 c-200 -7 -572 -29 -728 -43 l-68
-7 0 1376 0 1376 78 -28 c42 -16 130 -48 195 -71 l117 -43 0 -1108 c0 -609 3
-1110 8 -1112 4 -2 55 -2 115 1 l107 5 -2 1166 -3 1166 -305 16 c-168 9 -306
17 -307 18 -2 0 -3 83 -3 182 l0 182 58 -7 c31 -3 154 -13 272 -21z m1920
-475 l0 -460 -200 0 -200 0 0 278 0 277 -305 -3 -305 -3 0 175 0 176 318 1
c265 1 467 7 660 17 l32 2 0 -460z m395 65 c77 -20 157 -41 178 -46 l37 -10 0
-335 0 -336 263 6 c144 4 283 9 310 12 l47 6 0 -1026 0 -1026 -22 5 c-43 10
-494 55 -708 71 -118 8 -230 18 -247 20 l-33 5 0 674 0 675 195 0 195 0 0
-504 c0 -278 4 -507 8 -510 5 -3 57 -8 115 -12 l107 -7 -2 624 -3 624 -307 3
-308 2 0 566 c0 534 1 565 18 560 9 -2 80 -21 157 -41z m2055 -194 l0 -218
-77 -6 c-43 -4 -129 -9 -190 -13 l-113 -7 0 207 c0 113 1 206 3 207 1 0 83 10
182 23 99 13 183 24 188 25 4 0 7 -97 7 -218z m-3252 149 l182 -53 0 -325 0
-325 310 6 310 6 0 -956 0 -956 -77 7 c-43 3 -270 9 -505 13 l-428 6 0 659 0
658 195 0 195 0 0 -484 0 -483 38 -7 c20 -3 70 -6 110 -6 l72 0 0 600 0 600
-305 0 -305 0 0 551 c0 437 3 550 13 547 6 -3 94 -29 195 -58z m3191 -1286
l61 -7 0 -807 0 -807 -167 33 c-93 18 -178 33 -190 34 l-23 0 0 780 0 780 129
0 c70 0 156 -3 190 -6z"/>
<path d="M2944 6953 c4 -4 89 -44 189 -88 l182 -81 3 -357 2 -357 110 0 110 0
0 415 0 415 -35 0 c-38 0 -490 46 -539 55 -16 3 -26 2 -22 -2z"/>
<path d="M5018 3263 l-38 -4 0 -279 0 -278 103 -7 c57 -4 159 -6 228 -3 106 3
131 7 173 27 39 19 52 33 68 69 36 80 12 148 -62 179 l-35 15 36 19 c45 23 63
63 57 129 -6 59 -32 93 -93 121 -35 16 -64 18 -220 17 -99 -1 -197 -3 -217 -5z
m381 -133 c12 -6 21 -21 21 -34 0 -43 -24 -51 -162 -55 l-128 -3 0 50 0 51 53
4 c79 7 193 0 216 -13z m8 -226 c33 -9 40 -44 13 -66 -19 -15 -42 -18 -156
-18 l-134 0 0 45 0 45 128 0 c70 0 137 -3 149 -6z"/>
<path d="M5680 2980 l0 -280 270 0 270 0 0 65 0 65 -195 0 -195 0 0 40 0 40
155 0 155 0 0 65 0 65 -155 0 -155 0 0 45 0 45 195 0 195 0 0 65 0 65 -270 0
-270 0 0 -280z"/>
<path d="M1970 3214 c8 -2 260 -42 560 -89 1006 -158 1114 -175 1119 -181 3
-2 -37 -47 -89 -99 l-95 -95 390 1 390 1 -150 24 c-82 13 -163 28 -179 32 -28
7 -24 11 178 210 l206 202 -1173 -1 c-644 -1 -1165 -3 -1157 -5z"/>
<path d="M7089 3016 l204 -204 -34 -7 c-19 -3 -99 -17 -179 -29 l-145 -24 395
-1 395 0 -98 95 c-55 53 -97 97 -95 99 2 2 208 36 458 76 250 39 633 99 850
134 l395 63 -1175 1 -1175 1 204 -204z"/>
<path d="M3662 2431 c-61 -21 -90 -44 -108 -88 -38 -88 0 -183 86 -220 19 -8
88 -19 154 -24 65 -5 127 -14 137 -20 26 -13 24 -44 -3 -63 -28 -20 -209 -21
-315 -2 l-73 13 0 -68 0 -68 48 -8 c26 -4 119 -8 207 -8 148 0 164 2 208 24
141 69 124 264 -27 305 -28 8 -96 18 -151 21 -114 8 -135 16 -135 51 0 39 36
47 185 40 72 -3 145 -8 163 -12 l32 -6 0 64 0 65 -57 12 c-91 18 -288 14 -351
-8z"/>
<path d="M4898 2443 l-38 -4 0 -280 0 -279 75 0 75 0 0 93 0 92 86 -3 85 -4
57 -89 57 -89 73 0 c90 0 91 5 20 113 l-52 79 32 27 c94 78 81 272 -23 325
-36 19 -59 21 -225 22 -102 1 -202 -1 -222 -3z m362 -133 c15 -8 20 -21 20
-50 0 -60 -22 -70 -157 -70 l-113 0 0 65 0 64 58 4 c77 6 169 -1 192 -13z"/>
<path d="M5702 2435 c-63 -19 -111 -61 -138 -119 -20 -44 -24 -66 -24 -156 0
-90 4 -112 24 -156 45 -96 130 -134 301 -134 168 0 250 36 298 129 24 49 27
65 27 160 0 91 -4 113 -24 157 -46 100 -126 134 -304 133 -68 0 -135 -6 -160
-14z m289 -138 c39 -26 58 -71 58 -137 0 -66 -19 -111 -58 -137 -29 -20 -47
-23 -125 -23 -144 0 -180 32 -180 160 0 128 36 160 180 160 78 0 96 -3 125
-23z"/>
<path d="M7195 2432 c-77 -26 -114 -58 -143 -121 -22 -48 -26 -70 -27 -151 0
-85 3 -101 29 -154 33 -67 88 -108 167 -125 65 -14 248 -14 344 0 l75 11 0
134 0 134 -75 0 -75 0 0 -79 0 -79 -55 -7 c-98 -12 -203 11 -235 52 -27 34
-29 185 -4 222 43 60 202 75 392 35 l32 -6 0 65 0 65 -63 11 c-101 17 -303 14
-362 -7z"/>
<path d="M4170 2375 l0 -65 110 0 110 0 0 -215 0 -215 75 0 75 0 0 215 0 215
110 0 110 0 0 65 0 65 -295 0 -295 0 0 -65z"/>
<path d="M6310 2160 l0 -280 75 0 75 0 2 178 3 177 148 -177 149 -178 74 0 74
0 0 280 0 280 -75 0 -75 0 0 -175 c0 -96 -3 -175 -7 -174 -5 0 -73 79 -152
175 l-143 174 -74 0 -74 0 0 -280z"/>
</g>
</svg>
