<?xml version="1.0" encoding="utf-8"?>
<!-- Generator: Adobe Illustrator 18.0.0, SVG Export Plug-In . SVG Version: 6.00 Build 0)  -->
<!DOCTYPE svg PUBLIC "-//W3C//DTD SVG 1.1//EN" "http://www.w3.org/Graphics/SVG/1.1/DTD/svg11.dtd">
<svg version="1.1" id="Layer_1" xmlns="http://www.w3.org/2000/svg" xmlns:xlink="http://www.w3.org/1999/xlink" x="0px" y="0px"
	 viewBox="31.8 174.1 544.4 446.3" enable-background="new 31.8 174.1 544.4 446.3" xml:space="preserve">
<g>
	<g>
		<g>
			<path fill="#010101" d="M567,365.8c-3.1,9.2-6.7,17.7-10.7,26c-20.2,39.5-53.2,67.3-93.6,91.5c-58.4,34.9-115.1,67-146.6,130.4
				c-2.4,5.5-7.3,7.3-11.9,6.7c-4.9,0.6-9.2-1.2-11.6-6.7c-36.7-72.2-103.7-101.3-167.7-143.5c-53.2-34.9-86.3-83.2-92.4-147.8
				c-5.5-58.4,24.8-110.5,77.7-134.6c39.2-18.1,87.5-17.4,127.3-1.8c32.4,12.9,54.8,36.1,67,64.6c16.2-34.9,45.3-60.9,86.3-70.7
				c43.5-10.7,91.2-5.5,128.5,19.9c50.2,34,65.8,93,52.3,150.9C570.4,355.4,568.9,360.6,567,365.8z M318.9,304
				c-0.3,1.2-0.3,2.1-0.6,3.1c0.3-0.9,0.3-1.8,0-3.1c-0.3,4.3-2.1,7.3-4.6,9.8c-0.3,0.3-0.6,0.6-1.2,0.9c-2.4,1.5-5.2,2.4-8,2.4l0,0
				c-5.8-0.6-12.2-4.6-13.5-11.6c0-0.6-0.3-0.9-0.3-1.5c-6.1-65.2-54.8-103.7-118.7-102.5c-59.7,1.2-111.7,42.8-112.3,105
				c0,22.3,3.7,41.9,11,59.1c27.8,0,78,0,99.4,0c15-28.2,30.3-56.3,45.3-84.5c1.2-2.1,2.1-4.3,3.4-6.1c4.3-8.3,15.3-5.2,18.1,2.4
				c23.3,61.2,46.5,122.4,70.1,183.9c18.4-43.5,37-86.6,55.4-130c1.2-2.8,2.4-5.5,3.7-8.3c2.8-6.7,14.1-6.1,17.1,0
				c4.6,8.6,9.2,17.4,13.5,26c6.4-14.7,12.5-29.7,19-44.4c0.9-2.1,1.8-4.6,3.1-6.7c3.7-8.3,15.9-4.9,18.1,2.4
				c6.4,22,13.2,43.8,19.6,65.8c27.5,0,55.1,0,82.6,0c7-17.4,11-36.7,10.7-59.1c-0.6-63.3-54.8-105-114.8-105
				C371.5,201.8,324.4,240,318.9,304z M525.1,391.5c-25.4,0-50.8,0-76.2,0c-4.3,0-8.3-3.1-9.5-7.3c-4.6-15.6-9.2-28.2-13.8-43.8
				c-5.2,12.2-10.4,24.8-15.9,37c-1.2,2.8-2.4,5.5-3.7,8.6c-3.1,6.7-14.1,6.1-17.1,0c-4.6-8.6-8.9-17.4-13.5-26
				c-19.3,45-38.2,90-57.5,134.9l0,0c-0.9,2.1-1.8,4.6-2.8,6.7c-3.7,8.6-15.6,4.6-18.1-2.4c-23.9-62.1-47.4-124.2-71-186.4
				c-13.8,25.7-27.5,48.3-41.3,73.7c-1.5,3.1-5.2,4.9-8.6,4.9c-19.6,0-63,0-91.5,0c21.7,32.1,55.4,55.7,91.8,77.1
				c50.2,29.1,97,60.9,127.9,109.9c31.8-49.6,79.6-81.4,131-111.1C471.5,446.3,504,423,525.1,391.5z"/>
			<path fill="#010101" d="M318.2,304.3c0,1.2,0,2.1,0,3.1c-0.9,2.8-2.4,4.9-4.6,6.7C316.1,311.6,317.9,308.6,318.2,304.3z"/>
			<path fill="#010101" d="M317.9,307.3c-0.9,7-7,10.4-13.5,10.1c2.8,0,5.5-0.9,8-2.4c0.3-0.3,0.6-0.6,1.2-0.9
				C315.5,312.2,317.3,310.1,317.9,307.3z"/>
			<path fill="#010101" d="M304.5,317.1c-7.3,0.6-14.4-3.7-13.8-13.2c0,0.6,0,0.9,0.3,1.5C292.2,313.1,298,317.1,304.5,317.1z"/>
		</g>
	</g>
</g>
</svg>
