<?xml version="1.0" encoding="utf-8"?>
<!-- Generator: Adobe Illustrator 18.0.0, SVG Export Plug-In . SVG Version: 6.00 Build 0)  -->
<!DOCTYPE svg PUBLIC "-//W3C//DTD SVG 1.1//EN" "http://www.w3.org/Graphics/SVG/1.1/DTD/svg11.dtd">
<svg version="1.1" id="Layer_1" xmlns="http://www.w3.org/2000/svg" xmlns:xlink="http://www.w3.org/1999/xlink" x="0px" y="0px"
	 viewBox="0 0 139.1 128.3" enable-background="new 0 0 139.1 128.3" xml:space="preserve">
<g opacity="0.4">
	<g>
		<g>
			<g>
				<path fill-rule="evenodd" clip-rule="evenodd" fill="#E86C36" d="M74,90.6c-0.2-0.1-0.2,0-0.3,0.2c-0.2-0.1-0.3,0-0.3,0.3
					c0,0.2,0.1,0.4,0.1,0.6c0,0.2,0.1,0.3,0.1,0.5c0,0.2,0,0.3,0.1,0.5c0,0.1,0,0.1,0,0.2c0.1,0.4,0.1,0.8,0.2,1.2
					c0.1,0.4,0.1,0.8,0.1,1.2c0,0.1,0,0.2,0.1,0.2c0.1,0.1,0.1,0.1,0.1,0.2c0,0.2,0,0.3,0.1,0.5c0,0.1,0.1,0.1,0.1,0.2
					c0.1-0.3,0-0.6-0.1-0.9c0.1-0.1,0.2-0.1,0.1-0.2c-0.1-0.4-0.1-0.9-0.2-1.4c-0.1-0.3-0.1-0.5-0.2-0.8c0,0,0-0.1,0-0.1
					c0-0.2,0.1-0.4-0.1-0.5c0.1-0.4,0-0.7,0-1.1c0-0.1-0.1-0.2,0-0.4C74.1,90.7,74.1,90.6,74,90.6z M75,100.3c0,0.1,0,0.3,0,0.4
					c0,0.2,0,0.3,0,0.5c0,0.1,0.1,0.3,0.1,0.4c0,0.2,0.1,0.5,0.1,0.7c0,0.1,0,0.1,0,0.2c0,0.2,0,0.3,0.3,0.3c0.1-0.2,0-0.5-0.1-0.7
					c0-0.1,0-0.3,0-0.4c0-0.3-0.1-0.7-0.1-1c0-0.1,0-0.2-0.1-0.3C75.2,100.3,75.1,100.3,75,100.3z M73.3,88.6c0,0.1,0,0.2,0.1,0.3
					c0.1-0.1,0.1-0.1,0.2-0.1c0.2,0,0.2-0.2,0.2-0.4c0-0.2-0.1-0.4-0.1-0.5c0-0.1,0-0.2-0.1-0.3c0,0-0.1-0.1-0.1-0.1
					c0,0-0.1,0.1-0.1,0.1c-0.1,0.2-0.2,0.4-0.1,0.7C73.3,88.3,73.3,88.5,73.3,88.6z M75,99.1c0.1,0,0.1-0.2,0.1-0.3
					c0-0.2-0.1-0.4-0.1-0.6c0-0.1,0-0.2,0-0.2c0-0.1-0.1-0.2-0.2-0.2c-0.1,0-0.2,0.1-0.2,0.2c0,0.2,0,0.3,0,0.5
					c0,0.1,0.1,0.3,0.2,0.5C74.8,99,74.9,99.1,75,99.1z M73.6,90c0.3-0.2,0.3-0.4,0.2-0.6c-0.1,0.1-0.2,0.1-0.3,0.2
					c-0.1,0.1-0.1,0.2,0,0.3C73.5,89.9,73.6,90,73.6,90z"/>
				<path fill-rule="evenodd" clip-rule="evenodd" fill="#E86C36" d="M66.7,38.8c0-0.2,0-0.4-0.1-0.5c0-0.5,0-1-0.2-1.5
					c-0.1-0.3-0.1-0.3-0.4-0.2c0,0.1,0,0.2,0,0.3c0,0.3,0.1,0.5,0.1,0.8c0.1,0.4,0.1,0.8,0.2,1.2c0,0.3,0,0.6,0,0.9
					c0,0.1,0,0.2,0,0.3c0,0.1,0.1,0.2,0.2,0.1c0.1-0.1,0.1-0.1,0.2-0.2c0.1,0.1,0.1,0.2,0,0.3c-0.1,0.1-0.1,0.2,0,0.3
					c0.2,0,0.2-0.2,0.2-0.4c0-0.2-0.1-0.5-0.1-0.7C66.8,39.2,66.7,39,66.7,38.8z M65.1,29.6c0,0.2,0.2,0.2,0.3,0
					c0-0.1,0.1-0.2,0-0.3c0-0.3-0.1-0.5-0.1-0.8c-0.1-0.3-0.1-0.7-0.2-1l0,0c-0.1-0.4-0.2-0.7-0.3-1.1c0,0-0.1-0.1-0.1-0.1
					c0,0-0.1,0.1-0.1,0.1c0,0,0,0.1,0,0.1c0.1,0.3,0.1,0.6,0.1,0.9c0,0.3,0.1,0.6,0.1,0.9c0,0.1,0,0.3,0.1,0.4
					c0,0.1,0.1,0.2,0.2,0.3C65.1,29.4,65,29.5,65.1,29.6z M65.9,33.4c-0.1,0-0.1,0-0.1,0c-0.2-0.1-0.2,0-0.2,0.2
					c0,0.1,0,0.1,0.1,0.2c0.1,0.1,0.1,0.2,0.1,0.3c0,0.3,0,0.6,0.3,0.8c0,0,0.1,0.1,0.2,0c0,0,0-0.1,0-0.2c0-0.2-0.1-0.4-0.1-0.5
					C65.9,33.9,65.9,33.7,65.9,33.4z M65.6,32.1c0-0.1,0.1-0.1,0.1-0.2c0-0.1,0-0.1,0-0.2c-0.1-0.3-0.2-0.5-0.2-0.8
					c-0.2,0.1-0.2,0.2-0.2,0.3c0,0.2,0.1,0.5,0.2,0.7C65.4,32,65.5,32,65.6,32.1z M66,36.1c0.1,0.1,0.2,0.1,0.3,0.1
					c0.1-0.1,0.1-0.4,0-0.6c-0.1,0.1-0.2,0.1-0.2,0.2C65.9,35.8,65.9,35.9,66,36.1z"/>
			</g>
			<g>
				<path fill-rule="evenodd" clip-rule="evenodd" fill="#E86C36" d="M80.4,87.1c-0.1,0-0.2,0-0.2,0.2c-0.2,0-0.2,0.1-0.2,0.2
					c0.1,0.1,0.1,0.2,0.2,0.3c0.1,0.1,0.2,0.2,0.2,0.3c0,0.1,0.1,0.2,0.1,0.3c0,0,0,0.1,0.1,0.1c0.1,0.2,0.2,0.5,0.4,0.7
					c0.1,0.2,0.2,0.4,0.3,0.7c0,0,0,0.1,0.1,0.1c0.1,0,0.1,0,0.1,0.1c0,0.1,0.1,0.2,0.1,0.3c0,0,0.1,0,0.1,0.1
					c0.1-0.2-0.1-0.4-0.2-0.5c0.1,0,0.1-0.1,0.1-0.2c-0.2-0.2-0.2-0.5-0.4-0.8c-0.1-0.1-0.1-0.3-0.2-0.4c0,0,0-0.1,0-0.1
					c0-0.1,0-0.3-0.2-0.3c0-0.2-0.1-0.4-0.2-0.6c0-0.1-0.1-0.1-0.1-0.2C80.5,87.1,80.4,87.1,80.4,87.1z M82.5,92.6
					c0,0.1,0,0.2,0.1,0.2c0,0.1,0,0.2,0.1,0.3c0,0.1,0.1,0.1,0.1,0.2c0.1,0.1,0.1,0.3,0.2,0.4c0,0,0,0.1,0,0.1
					c0,0.1,0.1,0.2,0.2,0.1c0.1-0.2,0-0.3-0.2-0.4c0-0.1,0-0.2,0-0.2c-0.1-0.2-0.1-0.4-0.2-0.6c0-0.1-0.1-0.1-0.1-0.2
					C82.7,92.5,82.6,92.5,82.5,92.6z M79.6,86c0,0,0,0.1,0.1,0.2c0.1-0.1,0.1-0.1,0.1-0.1c0.1-0.1,0.1-0.2,0.1-0.3
					c0-0.1-0.1-0.2-0.1-0.3c0-0.1-0.1-0.1-0.1-0.2c0,0-0.1,0-0.1,0c0,0,0,0.1-0.1,0.1c0,0.1-0.1,0.3,0,0.4
					C79.5,85.9,79.5,86,79.6,86z M82.3,91.8c0.1,0,0.1-0.1,0-0.2c-0.1-0.1-0.1-0.2-0.2-0.3c0,0,0-0.1-0.1-0.1c0-0.1-0.1-0.1-0.2-0.1
					c-0.1,0-0.1,0.1-0.1,0.1c0,0.1,0.1,0.2,0.1,0.3c0,0.1,0.1,0.1,0.2,0.2C82.2,91.8,82.2,91.9,82.3,91.8z M80,86.8
					c0.2-0.2,0.2-0.3,0-0.4c-0.1,0.1-0.1,0.1-0.2,0.2c-0.1,0.1,0,0.1,0,0.2C79.9,86.8,79.9,86.8,80,86.8z"/>
				<path fill-rule="evenodd" clip-rule="evenodd" fill="#E86C36" d="M60.1,41.8c0-0.1-0.1-0.2-0.1-0.3c-0.1-0.3-0.1-0.6-0.4-0.8
					c-0.1-0.1-0.1-0.1-0.4,0c0,0.1,0,0.1,0,0.2c0.1,0.1,0.1,0.3,0.2,0.4c0.1,0.2,0.2,0.4,0.3,0.6c0.1,0.2,0.1,0.3,0.1,0.5
					c0,0.1,0,0.1,0.1,0.2c0,0.1,0.1,0.1,0.2,0c0,0,0.1-0.1,0.1-0.2c0.1,0,0.1,0.1,0,0.2c-0.1,0.1,0,0.1,0,0.2
					c0.2-0.1,0.1-0.2,0.1-0.2c0-0.1-0.1-0.3-0.2-0.4C60.2,42,60.2,41.9,60.1,41.8z M57.6,37c0.1,0.1,0.2,0.1,0.2,0
					c0-0.1,0-0.1,0-0.2c-0.1-0.1-0.1-0.3-0.2-0.4c-0.1-0.2-0.2-0.3-0.3-0.5l0,0c-0.1-0.2-0.2-0.4-0.4-0.5c0,0-0.1,0-0.1,0
					c0,0-0.1,0.1-0.1,0.1c0,0,0,0.1,0,0.1c0.1,0.1,0.1,0.3,0.2,0.5c0.1,0.2,0.1,0.3,0.2,0.5c0,0.1,0.1,0.2,0.1,0.2
					c0,0.1,0.1,0.1,0.2,0.1C57.6,36.8,57.6,36.9,57.6,37z M58.8,38.9c-0.1,0-0.1,0-0.1,0c-0.1,0-0.2,0-0.1,0.1c0,0,0,0.1,0.1,0.1
					c0.1,0,0.1,0.1,0.1,0.2c0,0.2,0.1,0.3,0.3,0.4c0,0,0.1,0,0.1,0c0,0,0-0.1,0-0.1c0-0.1-0.1-0.2-0.2-0.3
					C58.9,39.2,58.8,39,58.8,38.9z M58.3,38.2c0,0,0-0.1,0-0.1c0,0,0-0.1,0-0.1c-0.1-0.1-0.2-0.3-0.3-0.4c-0.1,0.1-0.2,0.1-0.1,0.2
					c0.1,0.1,0.1,0.2,0.2,0.3C58.2,38.2,58.3,38.2,58.3,38.2z M59.2,40.4c0.1,0,0.2,0,0.2,0c0.1-0.1,0.1-0.2-0.1-0.3
					c-0.1,0.1-0.1,0.1-0.2,0.2C59.1,40.3,59.1,40.3,59.2,40.4z"/>
			</g>
			<g>
				<path fill-rule="evenodd" clip-rule="evenodd" fill="#E86C36" d="M93.3,80.7c-0.2,0.1-0.2,0.1,0,0.3c-0.2,0.1-0.2,0.2,0,0.3
					c0.1,0.1,0.2,0.1,0.4,0.2c0.1,0.1,0.3,0.1,0.3,0.2c0.1,0.1,0.2,0.1,0.3,0.2c0,0,0.1,0.1,0.1,0.1c0.2,0.2,0.5,0.3,0.8,0.5
					c0.2,0.1,0.5,0.3,0.7,0.5c0,0,0.1,0.1,0.1,0.1c0.1,0,0.1,0,0.2,0c0.1,0.1,0.2,0.1,0.3,0.2c0,0,0.1,0,0.2,0
					c-0.1-0.3-0.3-0.3-0.5-0.4c0-0.1,0.1-0.2,0-0.2c-0.3-0.1-0.5-0.4-0.8-0.5c-0.2-0.1-0.3-0.2-0.5-0.3c0,0,0-0.1-0.1-0.1
					c-0.1-0.1-0.2-0.2-0.3-0.2c-0.1-0.2-0.3-0.4-0.5-0.5c-0.1-0.1-0.2-0.1-0.2-0.2C93.4,80.7,93.3,80.7,93.3,80.7z M98.6,84.9
					c0.1,0.1,0.1,0.1,0.2,0.2c0.1,0.1,0.2,0.2,0.3,0.2c0.1,0,0.2,0.1,0.2,0.1c0.1,0.1,0.3,0.2,0.4,0.3c0,0,0.1,0.1,0.1,0.1
					c0.1,0.1,0.2,0.1,0.3,0c0-0.2-0.2-0.2-0.4-0.3c-0.1-0.1-0.1-0.1-0.2-0.2c-0.2-0.2-0.4-0.3-0.5-0.5c-0.1-0.1-0.1-0.1-0.2-0.1
					C98.7,84.8,98.7,84.8,98.6,84.9z M91.9,80.2c0.1,0,0.1,0.1,0.2,0.1c0-0.1,0-0.1,0-0.2c0.1-0.1,0-0.2-0.1-0.3
					c-0.1-0.1-0.2-0.1-0.3-0.2c-0.1-0.1-0.1-0.1-0.2-0.1c0,0-0.1,0-0.1,0c0,0,0,0.1,0,0.1c0.1,0.2,0.1,0.3,0.3,0.4
					C91.8,80.1,91.8,80.1,91.9,80.2z M98,84.3c0-0.1,0-0.2-0.1-0.2c-0.1-0.1-0.3-0.2-0.4-0.2c0,0-0.1-0.1-0.1-0.1
					c-0.1-0.1-0.1,0-0.2,0c-0.1,0.1-0.1,0.1,0,0.2c0.1,0.1,0.2,0.1,0.3,0.3c0.1,0,0.2,0.1,0.3,0.1C97.8,84.4,97.9,84.4,98,84.3z
					 M92.8,80.7c0.1-0.3,0-0.4-0.2-0.4c0,0.1-0.1,0.2-0.1,0.2c0,0.1,0,0.1,0.1,0.1C92.6,80.7,92.7,80.7,92.8,80.7z"/>
				<path fill-rule="evenodd" clip-rule="evenodd" fill="#E86C36" d="M44.5,46.3c-0.1-0.1-0.2-0.1-0.3-0.2c-0.2-0.2-0.5-0.5-0.8-0.6
					c-0.2-0.1-0.2-0.1-0.3,0.2c0,0,0.1,0.1,0.1,0.2c0.1,0.1,0.3,0.2,0.4,0.3c0.2,0.1,0.4,0.3,0.6,0.5c0.2,0.1,0.3,0.3,0.4,0.4
					c0,0,0.1,0.1,0.2,0.1c0.1,0,0.1,0,0.2-0.1c0-0.1,0-0.1,0-0.2c0.1,0,0.1,0.1,0.1,0.1c0,0.1,0.1,0.1,0.1,0.1c0.1-0.1,0-0.2,0-0.3
					c-0.1-0.1-0.3-0.2-0.4-0.3C44.7,46.4,44.6,46.4,44.5,46.3z M39.3,43c0.1,0,0.2,0,0.2-0.1c0-0.1-0.1-0.1-0.1-0.2
					c-0.1-0.1-0.3-0.2-0.5-0.3c-0.2-0.1-0.4-0.2-0.6-0.3l0,0c-0.2-0.1-0.4-0.2-0.7-0.3c0,0-0.1,0-0.1,0c0,0,0,0.1,0,0.1
					c0,0,0,0.1,0.1,0.1c0.2,0.1,0.3,0.2,0.5,0.4c0.2,0.1,0.3,0.3,0.5,0.4c0.1,0.1,0.1,0.1,0.2,0.2c0.1,0,0.2,0,0.2,0
					C39.1,42.9,39.2,43,39.3,43z M41.5,44.3c0,0-0.1,0-0.1,0.1c-0.1,0.1-0.1,0.1,0,0.2c0,0,0.1,0,0.1,0.1c0.1,0,0.1,0.1,0.2,0.1
					c0.1,0.2,0.3,0.3,0.5,0.2c0,0,0.1-0.1,0.1-0.1c0,0,0-0.1-0.1-0.1c-0.1-0.1-0.2-0.1-0.3-0.2C41.8,44.5,41.6,44.4,41.5,44.3z
					 M40.7,43.9c0,0,0-0.1,0-0.1c0,0,0-0.1-0.1-0.1c-0.2-0.1-0.3-0.2-0.5-0.2c-0.1,0.2-0.1,0.2,0,0.3c0.1,0.1,0.3,0.2,0.4,0.2
					C40.5,43.9,40.6,43.9,40.7,43.9z M42.7,45.5c0.1,0,0.2,0,0.2-0.1c0-0.1-0.1-0.3-0.3-0.3c0,0.1,0,0.2-0.1,0.2
					C42.6,45.4,42.6,45.5,42.7,45.5z"/>
			</g>
			<g>
				<path fill-rule="evenodd" clip-rule="evenodd" fill="#E86C36" d="M99,67.9c-0.1,0.1-0.1,0.2,0.1,0.3c-0.1,0.2-0.1,0.3,0.1,0.3
					c0.1,0,0.3,0,0.4,0c0.1,0,0.3,0,0.4,0c0.1,0,0.2,0,0.3,0c0,0,0.1,0,0.1,0c0.3,0,0.6,0.1,0.9,0.1c0.3,0,0.6,0,0.8,0.1
					c0,0,0.1,0,0.2,0c0.1-0.1,0.1,0,0.2,0c0.1,0,0.2,0,0.4,0c0,0,0.1,0,0.1-0.1c-0.2-0.2-0.4-0.1-0.7-0.1c0-0.1,0-0.2-0.1-0.2
					c-0.3,0-0.7-0.1-1-0.1c-0.2,0-0.4-0.1-0.6,0c0,0-0.1,0-0.1,0c-0.1,0-0.3-0.1-0.4,0c-0.2-0.1-0.5-0.2-0.8-0.2
					c-0.1,0-0.2,0-0.3-0.1C99.1,67.9,99,67.9,99,67.9z M105.8,69.1c0.1,0,0.2,0,0.3,0.1c0.1,0,0.2,0.1,0.3,0.1c0.1,0,0.2,0,0.3,0
					c0.2,0,0.3,0,0.5,0.1c0,0,0.1,0,0.1,0c0.2,0.1,0.2,0,0.3-0.1c-0.1-0.2-0.3-0.1-0.5-0.1c-0.1,0-0.2-0.1-0.2-0.1
					c-0.2-0.1-0.5-0.1-0.7-0.2c-0.1,0-0.2,0-0.2,0C105.9,68.9,105.8,69,105.8,69.1z M97.4,68.1c0.1,0,0.1,0,0.2,0
					c0-0.1-0.1-0.1-0.1-0.2c0-0.2-0.1-0.2-0.2-0.2c-0.1,0-0.3,0-0.4-0.1c-0.1,0-0.2,0-0.2,0c0,0-0.1,0.1-0.1,0.1c0,0,0,0.1,0.1,0.1
					c0.1,0.1,0.3,0.2,0.5,0.2C97.3,68,97.4,68.1,97.4,68.1z M105,68.8c0-0.1-0.1-0.1-0.2-0.1c-0.2,0-0.3,0-0.5,0c-0.1,0-0.1,0-0.2,0
					c-0.1,0-0.1,0-0.2,0.1c0,0.1,0,0.1,0.1,0.2c0.1,0,0.2,0.1,0.4,0.1c0.1,0,0.2,0,0.3-0.1C104.9,69,105,68.9,105,68.8z M98.5,68.1
					c-0.1-0.3-0.2-0.4-0.4-0.3c0,0.1,0,0.2,0.1,0.3c0,0.1,0.1,0.1,0.2,0.1C98.4,68.2,98.4,68.2,98.5,68.1z"/>
				<path fill-rule="evenodd" clip-rule="evenodd" fill="#E86C36" d="M41,60.7c-0.1,0-0.2,0-0.4-0.1c-0.3-0.1-0.7-0.2-1-0.1
					c-0.2,0-0.2,0-0.2,0.3c0.1,0,0.1,0.1,0.2,0.1c0.2,0,0.3,0,0.5,0.1c0.3,0,0.5,0.1,0.8,0.1c0.2,0,0.4,0.1,0.6,0.1
					c0.1,0,0.1,0,0.2,0c0.1,0,0.1-0.1,0.1-0.1c0-0.1-0.1-0.1-0.1-0.2c0.1,0,0.1,0,0.2,0.1c0,0.1,0.1,0.1,0.2,0.1
					c0-0.2-0.1-0.2-0.2-0.2c-0.2-0.1-0.3,0-0.5-0.1C41.3,60.8,41.1,60.8,41,60.7z M34.7,60.3c0.1,0,0.2-0.1,0.1-0.2
					c0-0.1-0.1-0.1-0.2-0.1c-0.2,0-0.4,0-0.6,0c-0.2,0-0.5,0-0.7,0l0,0c-0.3,0-0.5,0-0.8,0c0,0-0.1,0-0.1,0.1c0,0,0,0.1,0,0.1
					c0,0,0.1,0,0.1,0c0.2,0,0.4,0.1,0.6,0.1c0.2,0,0.4,0.1,0.6,0.1c0.1,0,0.2,0,0.3,0c0.1,0,0.2-0.1,0.2-0.1
					C34.5,60.2,34.6,60.3,34.7,60.3z M37.3,60.4c0,0,0,0.1-0.1,0.1c-0.1,0.1,0,0.2,0.1,0.2c0,0,0.1,0,0.1,0c0.1,0,0.1,0,0.2,0
					c0.2,0.1,0.4,0.1,0.6-0.1c0,0,0.1-0.1,0-0.1c0,0-0.1-0.1-0.1-0.1c-0.1,0-0.3,0-0.4,0C37.6,60.4,37.5,60.4,37.3,60.4z M36.4,60.4
					c0,0-0.1-0.1-0.1-0.1c0,0-0.1,0-0.1,0c-0.2,0-0.4,0-0.6,0c0,0.2,0.1,0.2,0.2,0.2c0.2,0,0.3,0,0.5,0
					C36.3,60.5,36.3,60.4,36.4,60.4z M39,60.8c0.1,0,0.1-0.1,0.1-0.2c0-0.1-0.2-0.2-0.4-0.1c0,0.1,0,0.2,0.1,0.2
					C38.9,60.8,38.9,60.8,39,60.8z"/>
			</g>
			<g>
				<path fill-rule="evenodd" clip-rule="evenodd" fill="#E86C36" d="M96.9,54.2c0,0.1,0,0.2,0.2,0.2c0,0.2,0.1,0.2,0.3,0.2
					c0.1-0.1,0.2-0.1,0.4-0.2c0.1-0.1,0.2-0.2,0.3-0.2c0.1,0,0.2-0.1,0.3-0.1c0,0,0.1,0,0.1-0.1c0.3-0.1,0.6-0.2,0.8-0.4
					c0.3-0.1,0.5-0.2,0.8-0.3c0.1,0,0.1,0,0.1-0.1c0-0.1,0.1-0.1,0.1-0.1c0.1,0,0.2-0.1,0.3-0.1c0,0,0-0.1,0.1-0.1
					c-0.3-0.1-0.4,0.1-0.6,0.2c-0.1-0.1-0.1-0.1-0.2-0.1c-0.3,0.2-0.6,0.2-0.9,0.4c-0.2,0.1-0.4,0.1-0.5,0.2c0,0-0.1,0-0.1,0
					c-0.1,0-0.3,0-0.3,0.2c-0.3,0-0.5,0.1-0.8,0.2c-0.1,0-0.2,0.1-0.3,0.1C97,54.1,96.9,54.2,96.9,54.2z M103.5,52.1
					c0.1,0,0.2,0,0.3-0.1c0.1,0,0.2,0,0.3-0.1c0.1,0,0.2-0.1,0.3-0.1c0.2-0.1,0.3-0.1,0.5-0.2c0,0,0.1,0,0.1,0
					c0.2,0,0.2-0.1,0.1-0.2c-0.2-0.1-0.3,0-0.4,0.2c-0.1,0-0.2,0-0.3,0c-0.2,0.1-0.5,0.1-0.7,0.2c-0.1,0-0.1,0.1-0.2,0.1
					C103.4,51.9,103.4,52,103.5,52.1z M95.7,55.1c0.1,0,0.1,0,0.2-0.1c-0.1-0.1-0.1-0.1-0.1-0.1c-0.1-0.1-0.2-0.2-0.3-0.1
					c-0.1,0-0.2,0.1-0.4,0.1c-0.1,0-0.1,0.1-0.2,0.1c0,0,0,0.1,0,0.1c0,0,0.1,0,0.1,0.1c0.2,0,0.3,0.1,0.5,0
					C95.5,55.1,95.6,55.1,95.7,55.1z M102.6,52.3c0-0.1-0.1-0.1-0.2,0c-0.1,0.1-0.3,0.1-0.4,0.2c-0.1,0-0.1,0-0.2,0.1
					c-0.1,0-0.1,0.1-0.1,0.2c0,0.1,0.1,0.1,0.2,0.1c0.1,0,0.2-0.1,0.4-0.1c0.1,0,0.2-0.1,0.3-0.2C102.6,52.4,102.6,52.3,102.6,52.3z
					 M96.6,54.6c-0.3-0.2-0.3-0.2-0.5,0c0.1,0.1,0.1,0.1,0.2,0.2c0.1,0.1,0.1,0,0.2,0C96.6,54.7,96.6,54.7,96.6,54.6z"/>
				<path fill-rule="evenodd" clip-rule="evenodd" fill="#E86C36" d="M42.8,74.6c-0.1,0-0.2,0.1-0.3,0.1c-0.3,0.1-0.7,0.1-0.9,0.4
					c-0.2,0.1-0.2,0.1,0,0.4c0.1,0,0.1,0,0.2,0c0.2-0.1,0.3-0.1,0.5-0.2c0.2-0.1,0.5-0.2,0.7-0.3c0.2-0.1,0.4-0.1,0.6-0.1
					c0.1,0,0.1,0,0.2-0.1c0.1,0,0.1-0.1,0-0.2c-0.1,0-0.1-0.1-0.2-0.1c0.1-0.1,0.1-0.1,0.2,0c0.1,0.1,0.1,0,0.2,0
					c-0.1-0.2-0.2-0.1-0.3-0.1c-0.2,0-0.3,0.1-0.5,0.2C43,74.5,42.9,74.6,42.8,74.6z M37.1,77.1c0.1-0.1,0.1-0.2,0-0.2
					c-0.1,0-0.2,0-0.2,0c-0.2,0.1-0.3,0.1-0.5,0.2c-0.2,0.1-0.4,0.2-0.6,0.3l0,0c-0.2,0.1-0.4,0.2-0.6,0.4c0,0,0,0.1,0,0.1
					c0,0,0.1,0.1,0.1,0.1c0,0,0.1,0,0.1,0c0.2-0.1,0.4-0.1,0.6-0.2c0.2-0.1,0.4-0.1,0.6-0.2c0.1,0,0.2-0.1,0.3-0.1
					c0.1,0,0.1-0.1,0.2-0.2C36.9,77.1,37,77.1,37.1,77.1z M39.4,76c0,0.1,0,0.1,0,0.1c0,0.1,0.1,0.2,0.2,0.1c0,0,0.1,0,0.1-0.1
					c0.1-0.1,0.1-0.1,0.2-0.1c0.2,0,0.4-0.1,0.5-0.3c0,0,0-0.1,0-0.1c0,0-0.1,0-0.1,0c-0.1,0.1-0.2,0.1-0.3,0.2
					C39.7,75.8,39.5,75.9,39.4,76z M38.6,76.4c0,0-0.1,0-0.1,0c0,0-0.1,0-0.1,0c-0.2,0.1-0.3,0.2-0.5,0.3c0.1,0.1,0.2,0.2,0.3,0.1
					c0.1-0.1,0.3-0.1,0.4-0.2C38.6,76.5,38.6,76.4,38.6,76.4z M41.1,75.5c0.1-0.1,0-0.2,0-0.2c-0.1-0.1-0.3-0.1-0.4,0.1
					c0.1,0.1,0.1,0.1,0.2,0.2C41,75.6,41.1,75.6,41.1,75.5z"/>
			</g>
			<g>
				<path fill-rule="evenodd" clip-rule="evenodd" fill="#E86C36" d="M87.7,43.3c0.1,0.1,0.1,0.2,0.3,0c0.1,0.2,0.2,0.2,0.3,0
					c0.1-0.1,0.1-0.2,0.2-0.3c0.1-0.1,0.1-0.2,0.2-0.3c0.1-0.1,0.1-0.2,0.2-0.2c0,0,0.1-0.1,0.1-0.1c0.2-0.2,0.4-0.4,0.5-0.7
					c0.1-0.2,0.3-0.4,0.5-0.6c0,0,0.1-0.1,0.1-0.1c0-0.1,0-0.1,0-0.1c0.1-0.1,0.2-0.2,0.2-0.3c0,0,0-0.1,0-0.1
					c-0.3,0.1-0.3,0.3-0.4,0.5c-0.1,0-0.2,0-0.2,0c-0.2,0.3-0.4,0.5-0.6,0.7c-0.1,0.2-0.3,0.3-0.3,0.4c0,0-0.1,0-0.1,0.1
					c-0.1,0.1-0.3,0.1-0.2,0.3c-0.2,0.1-0.4,0.3-0.6,0.5c-0.1,0.1-0.1,0.1-0.2,0.2C87.6,43.2,87.6,43.2,87.7,43.3z M92.1,38.4
					c0.1-0.1,0.1-0.1,0.2-0.2c0.1-0.1,0.2-0.2,0.2-0.2c0-0.1,0.1-0.1,0.2-0.2c0.1-0.1,0.2-0.3,0.3-0.4c0,0,0.1,0,0.1-0.1
					c0.1-0.1,0.1-0.1,0-0.3c-0.2,0-0.3,0.2-0.3,0.3c-0.1,0.1-0.2,0.1-0.2,0.1c-0.2,0.2-0.3,0.3-0.5,0.5c-0.1,0.1-0.1,0.1-0.1,0.2
					C92,38.3,92.1,38.3,92.1,38.4z M87,44.6c0,0,0.1-0.1,0.1-0.2c-0.1,0-0.1,0-0.2,0c-0.1-0.1-0.2,0-0.3,0.1
					c-0.1,0.1-0.1,0.2-0.2,0.3c-0.1,0.1-0.1,0.1-0.1,0.2c0,0,0,0.1,0,0.1c0,0,0.1,0,0.1,0c0.2,0,0.3-0.1,0.4-0.3
					C86.9,44.7,87,44.6,87,44.6z M91.5,39c-0.1,0-0.2,0-0.2,0.1c-0.1,0.1-0.2,0.2-0.3,0.4c0,0-0.1,0.1-0.1,0.1c-0.1,0.1,0,0.1,0,0.2
					c0.1,0.1,0.1,0.1,0.2,0c0.1-0.1,0.2-0.1,0.3-0.3c0-0.1,0.1-0.2,0.1-0.3C91.6,39.1,91.6,39,91.5,39z M87.6,43.8
					c-0.3-0.1-0.4,0-0.4,0.2c0.1,0,0.2,0.1,0.3,0.1c0.1,0,0.1,0,0.2-0.1C87.6,43.9,87.6,43.8,87.6,43.8z"/>
				<path fill-rule="evenodd" clip-rule="evenodd" fill="#E86C36" d="M51.9,85.8c-0.1,0.1-0.1,0.2-0.2,0.3c-0.2,0.2-0.5,0.4-0.6,0.7
					C51,86.9,51,87,51.2,87.1c0.1,0,0.1-0.1,0.2-0.1c0.1-0.1,0.2-0.3,0.3-0.4c0.2-0.2,0.3-0.4,0.5-0.6c0.1-0.1,0.3-0.3,0.4-0.4
					c0,0,0.1-0.1,0.1-0.1c0.1-0.1,0-0.1-0.1-0.2c-0.1,0-0.2,0-0.2,0c0-0.1,0.1-0.1,0.2-0.1c0.1,0,0.1,0,0.2-0.1
					c-0.1-0.1-0.2,0-0.3,0c-0.1,0.1-0.2,0.2-0.3,0.4C52,85.6,52,85.7,51.9,85.8z M48.3,90.5c0.1-0.1,0-0.2-0.2-0.2
					c-0.1,0-0.1,0.1-0.2,0.1c-0.1,0.1-0.2,0.3-0.3,0.4c-0.1,0.2-0.2,0.4-0.4,0.5l0,0c-0.1,0.2-0.2,0.4-0.4,0.6c0,0,0,0.1,0,0.1
					c0,0,0.1,0,0.1,0c0,0,0.1,0,0.1-0.1c0.1-0.2,0.3-0.3,0.4-0.5c0.1-0.2,0.3-0.3,0.4-0.5c0.1-0.1,0.1-0.1,0.2-0.2
					c0-0.1,0-0.2,0.1-0.2C48.2,90.7,48.3,90.6,48.3,90.5z M49.7,88.5c0,0,0.1,0.1,0.1,0.1c0.1,0.1,0.1,0.1,0.2,0
					c0,0,0.1-0.1,0.1-0.1c0-0.1,0.1-0.1,0.1-0.2c0.2-0.1,0.3-0.3,0.2-0.5c0,0-0.1-0.1-0.1-0.1c0,0-0.1,0-0.1,0.1
					c-0.1,0.1-0.1,0.2-0.2,0.3C49.9,88.3,49.8,88.4,49.7,88.5z M49.2,89.2c-0.1,0-0.1,0-0.2,0c0,0-0.1,0-0.1,0.1
					c-0.1,0.2-0.2,0.3-0.3,0.5c0.2,0.1,0.2,0.1,0.3,0c0.1-0.1,0.2-0.2,0.2-0.4C49.3,89.4,49.2,89.3,49.2,89.2z M51,87.3
					c0-0.1,0-0.2-0.1-0.2c-0.1,0-0.3,0.1-0.3,0.2c0.1,0,0.2,0,0.2,0.1C50.9,87.5,51,87.4,51,87.3z"/>
			</g>
			<g>
				<path fill-rule="evenodd" clip-rule="evenodd" fill="#E86C36" d="M73.5,39.3c0.1,0.1,0.2,0.1,0.3-0.1c0.2,0.1,0.3,0.1,0.3-0.1
					c0-0.1,0-0.2,0-0.4c0-0.1,0-0.2,0-0.3c0-0.1,0-0.2,0-0.3c0,0,0-0.1,0-0.1c0-0.3,0.1-0.5,0.1-0.8c0-0.3,0-0.5,0.1-0.7
					c0,0,0-0.1,0-0.1c-0.1,0-0.1-0.1,0-0.1c0-0.1,0-0.2,0-0.3c0,0,0-0.1-0.1-0.1c-0.2,0.2-0.1,0.4-0.1,0.6c-0.1,0-0.2,0-0.2,0.1
					c0,0.3-0.1,0.6-0.1,0.9c0,0.2-0.1,0.3,0,0.5c0,0,0,0.1,0,0.1c0,0.1-0.1,0.2,0,0.3c-0.1,0.2-0.2,0.4-0.2,0.7c0,0.1,0,0.2-0.1,0.2
					C73.4,39.2,73.5,39.3,73.5,39.3z M74.7,33.3c0-0.1,0-0.2,0.1-0.2c0-0.1,0.1-0.2,0.1-0.3c0-0.1,0-0.2,0-0.2c0-0.1,0-0.3,0.1-0.5
					c0,0,0-0.1,0-0.1c0.1-0.1,0-0.2-0.2-0.2c-0.2,0.1-0.1,0.3-0.1,0.4c0,0.1-0.1,0.1-0.1,0.2c-0.1,0.2-0.1,0.4-0.2,0.6
					c0,0.1,0,0.1,0,0.2C74.5,33.3,74.6,33.3,74.7,33.3z M73.7,40.6c0-0.1,0-0.1,0-0.2c-0.1,0-0.1,0.1-0.2,0.1
					c-0.2,0-0.2,0.1-0.2,0.2c0,0.1,0,0.2-0.1,0.3c0,0.1,0,0.1,0,0.2c0,0,0.1,0.1,0.1,0.1c0,0,0.1,0,0.1-0.1c0.1-0.1,0.2-0.2,0.2-0.4
					C73.6,40.8,73.7,40.7,73.7,40.6z M74.5,34.1c-0.1,0-0.1,0.1-0.1,0.2c0,0.1,0,0.3,0,0.4c0,0,0,0.1,0,0.1c0,0.1,0,0.1,0.1,0.1
					c0.1,0,0.1,0,0.2-0.1c0-0.1,0.1-0.2,0.1-0.3c0-0.1,0-0.2-0.1-0.3C74.6,34.1,74.6,34.1,74.5,34.1z M73.7,39.7
					c-0.3,0.1-0.4,0.2-0.3,0.3c0.1,0,0.2,0,0.3,0c0.1,0,0.1-0.1,0.1-0.1C73.8,39.8,73.8,39.8,73.7,39.7z"/>
				<path fill-rule="evenodd" clip-rule="evenodd" fill="#E86C36" d="M66,90c0,0.1,0,0.2-0.1,0.3c-0.1,0.3-0.2,0.6-0.1,0.9
					c0,0.2,0,0.2,0.3,0.2c0-0.1,0.1-0.1,0.1-0.2c0-0.2,0-0.3,0.1-0.5c0-0.2,0.1-0.5,0.1-0.7c0-0.2,0.1-0.3,0.2-0.5
					c0-0.1,0-0.1,0-0.2c0-0.1-0.1-0.1-0.2-0.1c-0.1,0-0.1,0.1-0.2,0.1c0-0.1,0-0.1,0.1-0.1c0.1,0,0.1-0.1,0.1-0.2
					c-0.2,0-0.2,0.1-0.2,0.2c-0.1,0.1,0,0.3-0.1,0.4C66.1,89.8,66.1,89.9,66,90z M65.6,95.5c0-0.1-0.1-0.1-0.2-0.1
					c-0.1,0-0.1,0.1-0.1,0.2c0,0.2,0,0.3,0,0.5c0,0.2,0,0.4,0,0.6l0,0c0,0.2,0,0.4,0,0.7c0,0,0.1,0.1,0.1,0.1c0,0,0.1,0,0.1,0
					c0,0,0-0.1,0-0.1c0-0.2,0.1-0.4,0.1-0.6c0-0.2,0.1-0.4,0.1-0.6c0-0.1,0-0.2,0-0.2c0-0.1-0.1-0.1-0.1-0.2
					C65.5,95.7,65.6,95.6,65.6,95.5z M65.7,93.3c0,0,0.1,0,0.1,0.1c0.1,0.1,0.2,0,0.2-0.1c0,0,0-0.1,0-0.1c0-0.1,0-0.1,0-0.2
					c0.1-0.2,0.1-0.4-0.1-0.5c0,0-0.1-0.1-0.1,0c0,0-0.1,0.1-0.1,0.1c0,0.1,0,0.2,0,0.3C65.7,93,65.7,93.1,65.7,93.3z M65.7,94.1
					c0,0-0.1,0.1-0.1,0.1c0,0,0,0.1,0,0.1c0,0.2,0,0.3,0,0.5c0.2,0,0.2-0.1,0.2-0.2c0-0.1,0-0.3,0-0.4
					C65.8,94.1,65.7,94.1,65.7,94.1z M66.1,91.7c0-0.1-0.1-0.1-0.2-0.1c-0.1,0-0.2,0.2-0.1,0.3c0.1,0,0.2,0,0.2-0.1
					C66.1,91.9,66.2,91.8,66.1,91.7z"/>
			</g>
			<g>
				<path fill-rule="evenodd" clip-rule="evenodd" fill="#E86C36" d="M93.1,93.8c0-0.1,0-0.2-0.1-0.3c-0.2-0.1-0.3-0.3-0.5-0.4
					c-0.3-0.3-0.6-0.8-0.9-1.1c-0.2-0.2-0.3-0.4-0.5-0.6c-0.2-0.2-0.3-0.4-0.5-0.6c0,0,0,0,0,0c0-0.1-0.1-0.1-0.1-0.2
					c-0.1-0.1-0.3-0.2-0.3-0.1c-0.1,0-0.1,0.2,0,0.3c0,0,0,0,0,0c0.3,0.4,0.7,0.8,1,1.2c0.2,0.3,0.4,0.5,0.6,0.8
					c0,0.1,0.2,0.2,0.2,0.2c0,0.2,0.1,0.2,0.3,0.2c0,0,0,0,0.1,0.1c0.1,0.2,0.3,0.3,0.4,0.5C92.9,93.9,93.1,93.9,93.1,93.8z M87,87
					c0.3,0.3,0.5,0.7,0.8,1c0.2,0.2,0.4,0.5,0.6,0.7c0.2,0.3,0.5,0.5,0.7,0.8c0,0,0.1,0.1,0.2,0.1c0.1,0,0.1-0.1,0-0.2
					c-0.1-0.2-0.2-0.4-0.4-0.6c-0.2-0.2-0.3-0.3-0.5-0.5c-0.2-0.2-0.4-0.4-0.5-0.7c-0.2-0.3-0.4-0.5-0.7-0.8
					c-0.1-0.2-0.3-0.2-0.4-0.1C86.9,86.8,86.9,86.9,87,87z M86.2,85.9c0-0.1-0.1-0.2-0.1-0.3c-0.1-0.1-0.1-0.2-0.2-0.3
					c0-0.1-0.1-0.1-0.1-0.2c-0.1-0.2-0.3-0.3-0.4-0.5c-0.2-0.2-0.2-0.2-0.4-0.1c0.2,0.3,0.4,0.6,0.7,0.9c0.1,0.1,0.2,0.2,0.3,0.3
					C86,85.9,86.1,85.9,86.2,85.9z M94.6,95.2c-0.2-0.1-0.3-0.2-0.5-0.4c0,0,0,0-0.1,0c0,0,0,0.1,0,0.1c0,0.1-0.1,0.2,0,0.3
					c0.1,0.1,0.2,0.2,0.3,0.2c0.1,0.1,0.2,0.1,0.3,0C94.7,95.4,94.7,95.3,94.6,95.2z M89.9,89.9c-0.1-0.1-0.2-0.2-0.3-0.1
					c-0.1,0.1-0.1,0.2-0.1,0.3c0,0.1,0,0.2,0.1,0.2c0.1,0,0.2,0,0.2,0C89.9,90.2,90,90,89.9,89.9z"/>
				<path fill-rule="evenodd" clip-rule="evenodd" fill="#E86C36" d="M45.1,35.6c0.1,0.2,0.3,0.4,0.4,0.6c0.2,0.2,0.3,0.4,0.5,0.6
					c0.1,0.1,0.2,0.2,0.3,0.3c0.1-0.1,0.2-0.1,0.1-0.2c-0.1-0.2-0.3-0.4-0.4-0.6c-0.4-0.6-0.9-1-1.4-1.6c-0.1-0.1-0.2-0.3-0.3-0.4
					c-0.1-0.1-0.1-0.2-0.2-0.2c-0.1,0-0.2,0-0.2,0c0,0-0.1,0.1,0,0.1c0.1,0.2,0.2,0.4,0.4,0.5c0,0,0.1,0,0.1,0.1
					C44.6,35.1,44.9,35.4,45.1,35.6z M50.2,41.8c0.1,0,0.2,0,0.3,0.1c0.1-0.2,0.1-0.2,0-0.3c0,0-0.1,0-0.1-0.1
					c-0.2-0.3-0.4-0.6-0.7-0.9c-0.2-0.2-0.3-0.3-0.4-0.5c-0.1-0.2-0.3-0.3-0.4-0.4c-0.2,0.1-0.2,0.2-0.1,0.2
					c0.2,0.2,0.2,0.4,0.5,0.5c0,0,0,0,0,0c0,0,0.1,0,0.1,0c0,0,0,0.1,0,0.2c0.1,0,0.1,0.1,0.2,0.1c0.1,0.1,0.2,0.1,0.2,0.2
					c0,0.1,0.1,0.2,0.1,0.2c0.1,0.1,0.2,0.2,0.2,0.2C50.1,41.5,50.2,41.6,50.2,41.8z M47.9,38.9c0-0.1,0-0.2,0-0.2
					c-0.1-0.2-0.2-0.5-0.4-0.6c-0.1-0.1-0.2-0.1-0.2,0c-0.1,0-0.1,0.1,0,0.2c0,0,0,0.1,0.1,0.1c0.1,0.1,0.2,0.2,0.2,0.3
					C47.5,38.7,47.6,38.8,47.9,38.9z M51.6,42.8c-0.1-0.1-0.1-0.1-0.2,0c-0.1,0-0.1,0.1,0,0.2c0,0.1,0.1,0.2,0.1,0.2
					c0.1,0.2,0.2,0.2,0.3,0.2c0.1-0.1,0.1-0.2,0-0.3C51.8,43,51.7,42.9,51.6,42.8z M51,42.5c0.2-0.1,0.1-0.3-0.2-0.6
					c0,0.1-0.1,0.3-0.1,0.4c0,0.1,0,0.2,0.1,0.2C50.9,42.5,51,42.5,51,42.5z"/>
				<path fill-rule="evenodd" clip-rule="evenodd" fill="#E86C36" d="M42.1,84.6c0-0.2-0.1-0.2-0.4-0.1c-0.1-0.2-0.2-0.2-0.4-0.1
					c-0.2,0.1-0.3,0.3-0.5,0.4c-0.1,0.1-0.3,0.3-0.4,0.4c-0.2,0.1-0.3,0.2-0.4,0.3c-0.1,0-0.1,0.1-0.2,0.1c-0.4,0.3-0.7,0.5-1.1,0.8
					c-0.3,0.3-0.7,0.5-1,0.7c-0.1,0-0.2,0.1-0.2,0.2c0,0.1-0.1,0.1-0.2,0.2c-0.2,0.1-0.3,0.2-0.4,0.3c0,0-0.1,0.1-0.1,0.2
					c0.4-0.1,0.6-0.3,0.8-0.5c0.1,0,0.2,0.1,0.3,0c0.4-0.3,0.8-0.5,1.2-0.9c0.2-0.2,0.5-0.3,0.7-0.5c0,0,0.1,0,0.1-0.1
					c0.2-0.1,0.4-0.2,0.4-0.4c0.4-0.1,0.7-0.3,1-0.6c0.1-0.1,0.2-0.2,0.3-0.2C42,84.8,42.1,84.7,42.1,84.6z M33.4,90.3
					c-0.1,0.1-0.2,0.1-0.4,0.2c-0.2,0.1-0.3,0.2-0.4,0.3c-0.1,0.1-0.2,0.2-0.3,0.3c-0.2,0.1-0.4,0.3-0.6,0.4c0,0-0.1,0.1-0.2,0.1
					c-0.2,0.1-0.3,0.2-0.2,0.4c0.3,0,0.5-0.2,0.6-0.4c0.1-0.1,0.3-0.1,0.4-0.2c0.3-0.2,0.6-0.4,0.9-0.6c0.1-0.1,0.2-0.1,0.2-0.2
					C33.5,90.5,33.5,90.4,33.4,90.3z M43.6,83.1c-0.1,0.1-0.2,0.1-0.3,0.2c0.1,0,0.2,0,0.2,0.1c0.1,0.1,0.3,0.1,0.5,0
					c0.2-0.1,0.3-0.2,0.5-0.3c0.1-0.1,0.2-0.2,0.3-0.2c0,0,0-0.1,0-0.2c0,0-0.1,0-0.2,0c-0.3,0-0.5,0.1-0.7,0.3
					C43.9,83,43.8,83,43.6,83.1z M34.6,89.6c0.1,0.1,0.2,0,0.3-0.1c0.2-0.1,0.4-0.3,0.5-0.4c0.1-0.1,0.1-0.1,0.2-0.1
					c0.1-0.1,0.1-0.2,0.1-0.2c0-0.1-0.1-0.1-0.2,0c-0.1,0.1-0.3,0.2-0.5,0.3c-0.1,0.1-0.2,0.2-0.3,0.4
					C34.5,89.5,34.5,89.6,34.6,89.6z M42.4,84c0.4,0.1,0.5,0.1,0.7-0.2c-0.1,0-0.2-0.1-0.3-0.1c-0.1,0-0.2,0-0.3,0.1
					C42.5,83.9,42.5,84,42.4,84z"/>
				<path fill-rule="evenodd" clip-rule="evenodd" fill="#E86C36" d="M94.2,48.1c0.2-0.1,0.3-0.2,0.5-0.3c0.5-0.3,0.9-0.5,1.3-0.9
					c0.2-0.2,0.2-0.2,0-0.4c-0.1,0-0.2,0.1-0.3,0.1c-0.2,0.2-0.4,0.3-0.7,0.5c-0.3,0.2-0.7,0.5-1,0.7c-0.3,0.2-0.6,0.3-0.8,0.5
					c-0.1,0.1-0.2,0.1-0.3,0.2c-0.1,0.1-0.1,0.2,0,0.2c0.1,0,0.2,0,0.3,0c-0.1,0.1-0.2,0.1-0.3,0.1c-0.1,0-0.2,0-0.3,0.1
					c0.1,0.2,0.3,0,0.4,0c0.2-0.1,0.4-0.3,0.6-0.4C93.9,48.4,94,48.2,94.2,48.1z M102.1,42.2c-0.1,0.1-0.1,0.3,0.1,0.2
					c0.1,0,0.2-0.1,0.3-0.1c0.2-0.2,0.5-0.3,0.7-0.5c0.3-0.2,0.5-0.4,0.8-0.7l0,0c0.3-0.3,0.6-0.5,0.9-0.8c0,0,0-0.1,0-0.2
					c0,0-0.1,0-0.1,0c0,0-0.1,0-0.1,0.1c-0.2,0.2-0.6,0.4-0.8,0.6c-0.3,0.2-0.6,0.4-0.8,0.6c-0.1,0.1-0.3,0.2-0.4,0.3
					c-0.1,0.1-0.1,0.2-0.2,0.3C102.3,42.1,102.2,42.1,102.1,42.2z M98.9,44.7c0-0.1,0-0.1,0-0.1c0-0.2-0.1-0.2-0.3-0.1
					c-0.1,0-0.1,0.1-0.1,0.1c-0.1,0.1-0.2,0.2-0.3,0.2c-0.3,0.1-0.6,0.3-0.6,0.6c0,0,0,0.1,0.1,0.1c0,0,0.1,0,0.2-0.1
					c0.2-0.1,0.3-0.3,0.5-0.4C98.5,45,98.7,44.9,98.9,44.7z M100,43.8c0.1,0,0.1,0,0.2,0c0.1,0,0.1,0,0.2-0.1
					c0.2-0.2,0.4-0.4,0.7-0.6c-0.2-0.1-0.3-0.1-0.4,0c-0.2,0.2-0.4,0.3-0.6,0.5C100,43.6,100,43.7,100,43.8z M96.5,46.1
					c-0.1,0.1,0,0.2,0.1,0.2c0.2,0.1,0.4-0.1,0.5-0.3c-0.1,0-0.2-0.1-0.3-0.1C96.6,46,96.5,46,96.5,46.1z"/>
			</g>
			<g>
				<path fill-rule="evenodd" clip-rule="evenodd" fill="#E86C36" d="M85.4,31.3c-0.1,0-0.2,0.1-0.2,0.2c0,0.2-0.1,0.4-0.2,0.6
					c-0.2,0.4-0.4,0.8-0.6,1.2c-0.1,0.2-0.2,0.4-0.4,0.7c-0.1,0.2-0.2,0.5-0.3,0.7c0,0,0,0,0,0c0,0.1-0.1,0.1-0.1,0.2
					c-0.1,0.1,0,0.3,0,0.3c0.1,0,0.2,0,0.3-0.2c0,0,0,0,0-0.1c0.2-0.5,0.4-0.9,0.6-1.4c0.2-0.3,0.2-0.6,0.4-0.9
					c0.1-0.1,0.1-0.2,0.1-0.3c0.1-0.1,0.1-0.2,0.1-0.3c0,0,0,0,0-0.1c0.1-0.2,0.2-0.4,0.3-0.6C85.6,31.4,85.5,31.3,85.4,31.3z
					 M82.1,39.6c0.2-0.4,0.4-0.8,0.5-1.1c0.1-0.3,0.2-0.6,0.4-0.8c0.2-0.3,0.2-0.6,0.4-0.9c0,0,0-0.1,0-0.2c-0.1-0.1-0.1,0-0.2,0.1
					c-0.1,0.2-0.3,0.4-0.4,0.6c-0.1,0.2-0.2,0.4-0.2,0.6c-0.1,0.3-0.2,0.5-0.4,0.8c-0.1,0.3-0.3,0.6-0.4,0.9
					c-0.1,0.2-0.1,0.3,0.1,0.4C81.9,39.8,82,39.7,82.1,39.6z M81.4,40.7c-0.1,0-0.2,0.2-0.2,0.3c0,0.1-0.1,0.2-0.1,0.3
					c0,0.1-0.1,0.1-0.1,0.2c-0.1,0.2-0.2,0.4-0.2,0.6c-0.1,0.3-0.1,0.3,0.1,0.4c0.2-0.3,0.4-0.7,0.5-1c0-0.1,0.1-0.3,0.2-0.4
					C81.5,40.9,81.5,40.8,81.4,40.7z M86,29.4c0,0.2-0.1,0.4-0.1,0.6c0,0,0,0,0,0c0,0,0,0,0.1-0.1c0.1,0,0.2,0,0.3-0.2
					c0-0.1,0.1-0.2,0.1-0.4c0-0.1-0.1-0.2-0.2-0.2C86,29.2,86,29.3,86,29.4z M83.3,35.8c-0.1,0.1-0.1,0.2,0.1,0.3
					c0.1,0,0.2,0,0.3-0.1c0.1,0,0.2-0.1,0.2-0.1c0-0.1-0.1-0.2-0.1-0.2C83.6,35.6,83.4,35.7,83.3,35.8z"/>
				<path fill-rule="evenodd" clip-rule="evenodd" fill="#E86C36" d="M54.5,98.5c0.1-0.2,0.2-0.4,0.3-0.6c0.1-0.2,0.2-0.5,0.3-0.7
					c0.1-0.1,0.1-0.3,0.1-0.4c-0.1-0.1-0.2-0.1-0.3,0c-0.1,0.2-0.3,0.4-0.4,0.6c-0.3,0.6-0.5,1.3-0.8,1.9c-0.1,0.2-0.1,0.3-0.2,0.5
					c0,0.1-0.1,0.2-0.1,0.3c0,0.1,0.1,0.1,0.1,0.2c0,0,0.1,0,0.2,0c0.1-0.2,0.3-0.4,0.3-0.6c0,0,0-0.1,0-0.1
					C54.2,99.2,54.3,98.8,54.5,98.5z M57.7,91.4c0-0.1-0.1-0.2-0.1-0.2c-0.2,0-0.2,0-0.3,0.2c0,0,0,0.1,0,0.1
					c-0.2,0.3-0.4,0.6-0.4,1c-0.1,0.2-0.2,0.4-0.3,0.6c-0.1,0.2-0.2,0.4-0.2,0.6c0.2,0.1,0.2,0.1,0.3,0c0.1-0.2,0.3-0.4,0.3-0.6
					c0,0,0,0,0,0c0,0,0-0.1,0-0.1c0.1,0,0.1,0,0.2,0c0-0.1,0-0.1,0-0.2c0-0.1,0-0.2,0.1-0.2c0.1-0.1,0.1-0.1,0.1-0.2
					c0-0.1,0.1-0.2,0.1-0.3C57.5,91.6,57.6,91.5,57.7,91.4z M56.2,94.7c-0.1,0-0.2,0-0.2,0.1c-0.2,0.2-0.3,0.4-0.4,0.7
					c0,0.1,0,0.2,0.1,0.2c0.1,0,0.2,0,0.2-0.1c0,0,0-0.1,0.1-0.1c0-0.1,0.1-0.2,0.2-0.3C56.1,95.1,56.2,94.9,56.2,94.7z M58,89.8
					c0,0.1,0,0.1,0.1,0.2c0.1,0,0.1,0,0.2-0.1c0.1-0.1,0.1-0.1,0.2-0.2c0.1-0.2,0.1-0.3,0-0.4c-0.1-0.1-0.2,0-0.3,0.2
					C58.1,89.6,58,89.7,58,89.8z M58,90.4c-0.2-0.1-0.4,0.1-0.4,0.4c0.2,0,0.3-0.1,0.4-0.1c0.1,0,0.1-0.1,0.2-0.2
					C58.1,90.5,58,90.4,58,90.4z"/>
				<path fill-rule="evenodd" clip-rule="evenodd" fill="#E86C36" d="M101.9,76.9c-0.2,0.1-0.1,0.2,0.1,0.3
					c-0.2,0.2-0.1,0.3,0.1,0.3c0.2,0.1,0.4,0.1,0.6,0.2c0.2,0,0.4,0.1,0.5,0.1c0.2,0.1,0.3,0.1,0.5,0.2c0.1,0,0.1,0,0.2,0.1
					c0.4,0.1,0.9,0.3,1.3,0.4c0.4,0.1,0.8,0.3,1.2,0.5c0.1,0,0.2,0.1,0.2,0.1c0.1-0.1,0.2,0,0.2,0c0.2,0.1,0.3,0.1,0.5,0.2
					c0.1,0,0.1,0,0.2,0c-0.3-0.3-0.6-0.3-0.9-0.4c0-0.1,0-0.2-0.2-0.2c-0.5-0.1-0.9-0.4-1.4-0.5c-0.3-0.1-0.5-0.2-0.8-0.3
					c0,0-0.1-0.1-0.1-0.1c-0.2-0.1-0.4-0.3-0.6-0.2c-0.3-0.2-0.7-0.4-1-0.5c-0.1,0-0.3-0.1-0.4-0.2C102.1,76.8,102,76.8,101.9,76.9z
					 M111.6,80.9c0.1,0.1,0.3,0.1,0.4,0.2c0.2,0.1,0.3,0.2,0.5,0.2c0.1,0,0.3,0.1,0.4,0.1c0.2,0.1,0.5,0.2,0.7,0.3
					c0.1,0,0.1,0.1,0.2,0.1c0.2,0.1,0.3,0.1,0.4-0.1c-0.2-0.2-0.4-0.3-0.7-0.3c-0.1-0.1-0.2-0.2-0.3-0.2c-0.3-0.2-0.7-0.3-1-0.5
					c-0.1-0.1-0.2-0.1-0.3-0.1C111.7,80.8,111.6,80.8,111.6,80.9z M99.6,76.4c0.1,0,0.2,0.1,0.3,0.1c0-0.1-0.1-0.2-0.1-0.2
					c0-0.2-0.1-0.3-0.3-0.3c-0.2-0.1-0.4-0.1-0.5-0.2c-0.1-0.1-0.2-0.1-0.4-0.1c-0.1,0-0.1,0-0.2,0.1c0,0,0,0.1,0.1,0.1
					c0.2,0.2,0.3,0.3,0.6,0.4C99.4,76.3,99.5,76.4,99.6,76.4z M110.4,80.3c0-0.1-0.1-0.2-0.2-0.2c-0.2-0.1-0.4-0.1-0.7-0.2
					c-0.1,0-0.2-0.1-0.2-0.1c-0.1-0.1-0.2,0-0.3,0.1c-0.1,0.1,0,0.2,0.1,0.2c0.1,0.1,0.3,0.1,0.5,0.3c0.1,0,0.3,0.1,0.5,0.1
					C110.2,80.4,110.3,80.4,110.4,80.3z M101.2,76.9c-0.1-0.4-0.2-0.5-0.5-0.4c0,0.1,0,0.2,0,0.3c0,0.1,0.1,0.2,0.2,0.2
					C101,76.9,101.1,76.9,101.2,76.9z"/>
				<path fill-rule="evenodd" clip-rule="evenodd" fill="#E86C36" d="M38.7,51.9c-0.2-0.1-0.4-0.1-0.5-0.2c-0.5-0.2-1-0.5-1.5-0.6
					c-0.3,0-0.3-0.1-0.4,0.2c0.1,0.1,0.2,0.1,0.3,0.2c0.3,0.1,0.5,0.2,0.8,0.3c0.4,0.2,0.8,0.3,1.2,0.5c0.3,0.1,0.6,0.3,0.9,0.4
					c0.1,0,0.2,0.1,0.3,0.1c0.1,0,0.2,0,0.2-0.1c0-0.1-0.1-0.2-0.1-0.3c0.1,0,0.2,0.1,0.2,0.2c0,0.1,0.2,0.1,0.3,0.2
					c0.1-0.2-0.1-0.3-0.2-0.3c-0.2-0.1-0.5-0.2-0.7-0.3C39.1,52,38.9,52,38.7,51.9z M29.1,48.6c0.2,0,0.3-0.1,0.2-0.2
					c-0.1-0.1-0.2-0.2-0.3-0.2c-0.3-0.1-0.6-0.2-0.8-0.3c-0.3-0.1-0.7-0.2-1-0.3l0,0c-0.4-0.1-0.8-0.2-1.2-0.3c-0.1,0-0.1,0-0.2,0.1
					c0,0,0,0.1,0.1,0.1c0,0,0.1,0.1,0.1,0.1c0.3,0.1,0.6,0.2,1,0.4c0.3,0.1,0.6,0.3,0.9,0.4c0.1,0.1,0.3,0.1,0.4,0.2
					c0.1,0,0.3,0,0.4,0C28.9,48.5,29,48.6,29.1,48.6z M33.1,49.8c-0.1,0-0.1,0.1-0.1,0.1c-0.1,0.1-0.1,0.2,0.1,0.3
					c0.1,0,0.1,0.1,0.2,0c0.1,0,0.2,0.1,0.3,0.1c0.3,0.2,0.6,0.3,0.9,0.2c0.1,0,0.1-0.1,0.1-0.1c0,0-0.1-0.1-0.2-0.1
					c-0.2-0.1-0.4-0.1-0.6-0.2C33.6,50,33.4,49.9,33.1,49.8z M31.7,49.4c0-0.1-0.1-0.1-0.1-0.2c0,0-0.1-0.1-0.2-0.1
					c-0.3-0.1-0.6-0.1-0.9-0.2c0,0.2,0,0.3,0.2,0.3c0.2,0.1,0.5,0.2,0.7,0.2C31.5,49.5,31.6,49.5,31.7,49.4z M35.7,51.1
					c0.1,0,0.2-0.1,0.2-0.2c0-0.2-0.3-0.3-0.5-0.3c0,0.1,0,0.2,0.1,0.3C35.4,51,35.5,51.1,35.7,51.1z"/>
			</g>
		</g>
		<g>
			<g>
				<path fill-rule="evenodd" clip-rule="evenodd" fill="#E86C36" d="M70.8,107.9c-0.3-0.2-0.4-0.1-0.5,0.4c-0.4-0.1-0.5,0-0.5,0.4
					c0,0.3,0.1,0.7,0.1,1c0,0.3,0.2,0.6,0.1,0.9c-0.1,0.3,0,0.5,0,0.8c0,0.1,0,0.2,0,0.3c0,0.7,0,1.4,0.1,2.1c0.1,0.7,0.1,1.3,0,2
					c0,0.1,0,0.3,0.1,0.4c0.1,0.1,0.1,0.2,0.1,0.4c0,0.3,0,0.6,0,0.8c0,0.1,0.1,0.2,0.2,0.3c0.3-0.5,0.2-1,0.1-1.6
					c0.2-0.1,0.3-0.1,0.3-0.4c-0.1-0.8,0-1.5-0.1-2.3c-0.1-0.4,0-0.9-0.1-1.4c0-0.1,0-0.1,0.1-0.2c0-0.3,0.2-0.7-0.1-0.9
					c0.2-0.6,0.2-1.2,0.2-1.8c0-0.2,0-0.4,0.1-0.6C71,108.1,71,108,70.8,107.9z M70.4,124.1c0,0.2,0,0.4-0.1,0.6
					c0,0.3-0.1,0.6,0,0.8c0,0.2,0,0.4,0,0.7c0,0.4,0,0.8,0,1.2c0,0.1,0,0.2,0,0.3c-0.1,0.4,0,0.5,0.4,0.6c0.3-0.4,0.1-0.8,0-1.1
					c0.1-0.2,0.1-0.4,0.1-0.6c0-0.6,0-1.1,0.1-1.7c0-0.2,0-0.4-0.1-0.5C70.7,124.2,70.6,124.2,70.4,124.1z M70.2,104.4
					c0,0.2,0,0.3,0,0.5c0.1-0.1,0.2-0.2,0.3-0.2c0.3,0,0.4-0.3,0.4-0.6c0-0.3,0-0.6,0-0.9c0-0.2,0-0.4-0.1-0.6
					c0-0.1-0.1-0.2-0.2-0.2c-0.1,0-0.1,0.1-0.2,0.2c-0.2,0.3-0.3,0.7-0.3,1.1C70.2,104,70.2,104.2,70.2,104.4z M70.6,122.1
					c0.2,0,0.2-0.2,0.2-0.4c0-0.4,0-0.7-0.1-1.1c0-0.1,0-0.3,0-0.4c0-0.2-0.1-0.3-0.3-0.3c-0.2,0-0.3,0.1-0.3,0.3
					c0,0.3-0.1,0.5-0.1,0.9c0,0.2,0.1,0.5,0.2,0.8C70.3,122,70.4,122.1,70.6,122.1z M70.3,106.9c0.6-0.3,0.7-0.5,0.4-1
					c-0.2,0.1-0.3,0.1-0.5,0.2c-0.2,0.1-0.2,0.3-0.1,0.4C70.2,106.7,70.3,106.8,70.3,106.9z"/>
				<path fill-rule="evenodd" clip-rule="evenodd" fill="#E86C36" d="M70.3,21c0-0.3,0-0.6,0-0.9c0.1-0.8,0.2-1.7,0-2.5
					c-0.1-0.5-0.1-0.5-0.6-0.4c0,0.2-0.1,0.3-0.1,0.5c0,0.4,0,0.9,0,1.3c0,0.7,0,1.3,0,2c0,0.5-0.1,1-0.1,1.5c0,0.2,0,0.3,0,0.5
					c0,0.2,0.1,0.3,0.3,0.2c0.1-0.1,0.2-0.2,0.4-0.3c0.1,0.2,0,0.3-0.1,0.4c-0.2,0.1-0.1,0.3-0.1,0.5c0.3,0,0.4-0.3,0.4-0.6
					c0.1-0.4,0-0.8,0-1.2C70.3,21.7,70.3,21.3,70.3,21z M69.6,5.5c0,0.3,0.3,0.4,0.4,0.1c0.1-0.1,0.1-0.3,0.1-0.5
					c0-0.5,0-0.9-0.1-1.4C70.1,3.2,70,2.6,70,2l0.1,0c-0.1-0.6-0.1-1.2-0.2-1.8c0-0.1-0.1-0.2-0.2-0.2c-0.1,0-0.1,0.1-0.2,0.2
					c0,0.1-0.1,0.2,0,0.2c0.1,0.5,0,1.1,0,1.6c0,0.5,0,1.1,0,1.6c0,0.2,0,0.5,0,0.7c0,0.2,0.2,0.4,0.2,0.6C69.6,5,69.6,5.3,69.6,5.5
					z M70.1,11.8c-0.1,0-0.2-0.1-0.2-0.1c-0.3-0.1-0.4-0.1-0.4,0.3c0,0.1,0,0.2,0.1,0.3c0.1,0.2,0.1,0.4,0,0.6
					c-0.1,0.5-0.1,1,0.3,1.4c0.1,0.1,0.2,0.1,0.2,0.1c0.1,0,0.1-0.2,0.1-0.3c0-0.3-0.1-0.6-0.1-0.9C70.1,12.7,70.1,12.3,70.1,11.8z
					 M69.9,9.6C69.9,9.5,70,9.5,70,9.4c0-0.1,0-0.2,0-0.3c-0.1-0.5-0.1-0.9-0.2-1.4c-0.3,0.1-0.4,0.2-0.4,0.5c0,0.4,0.1,0.8,0.1,1.2
					C69.6,9.5,69.8,9.5,69.9,9.6z M69.7,16.3c0.1,0.2,0.3,0.3,0.4,0.2c0.2-0.1,0.3-0.6,0.1-0.9c-0.1,0.1-0.3,0.2-0.4,0.3
					C69.6,15.9,69.6,16.1,69.7,16.3z"/>
			</g>
			<g>
				<path fill-rule="evenodd" clip-rule="evenodd" fill="#E86C36" d="M82.2,103.3c-0.2-0.1-0.3,0-0.3,0.3c-0.3,0-0.4,0.1-0.3,0.3
					c0.1,0.2,0.2,0.4,0.3,0.5c0.1,0.2,0.2,0.3,0.2,0.5c0,0.2,0.1,0.3,0.1,0.4c0,0.1,0,0.1,0.1,0.2c0.1,0.4,0.3,0.8,0.5,1.2
					c0.2,0.4,0.3,0.7,0.3,1.1c0,0.1,0.1,0.2,0.1,0.2c0.1,0,0.1,0.1,0.2,0.2c0,0.2,0.1,0.3,0.1,0.5c0,0,0.1,0.1,0.2,0.1
					c0.2-0.4,0-0.6-0.2-0.9c0.1-0.1,0.2-0.1,0.1-0.3c-0.2-0.4-0.2-0.9-0.5-1.3c-0.1-0.2-0.1-0.5-0.3-0.8c0,0,0-0.1,0-0.1
					c0-0.2,0-0.4-0.2-0.5c0-0.4,0-0.7-0.1-1.1c0-0.1-0.1-0.2-0.1-0.4C82.4,103.4,82.3,103.3,82.2,103.3z M84.5,112.7
					c0,0.1,0,0.3,0.1,0.4c0,0.2,0,0.3,0.1,0.5c0.1,0.1,0.1,0.2,0.1,0.4c0.1,0.2,0.1,0.5,0.2,0.7c0,0.1,0,0.1,0,0.2
					c0,0.2,0.1,0.3,0.4,0.2c0.1-0.3,0-0.5-0.2-0.6c0-0.1,0-0.3,0-0.4c-0.1-0.3-0.2-0.7-0.2-1c0-0.1-0.1-0.2-0.2-0.3
					C84.8,112.7,84.7,112.7,84.5,112.7z M81.1,101.4c0,0.1,0.1,0.2,0.1,0.3c0.1-0.1,0.1-0.2,0.2-0.2c0.2-0.1,0.3-0.2,0.2-0.4
					c-0.1-0.2-0.1-0.3-0.1-0.5c0-0.1-0.1-0.2-0.2-0.3c0,0-0.1-0.1-0.2-0.1c0,0-0.1,0.1-0.1,0.1c-0.1,0.2-0.2,0.5,0,0.7
					C81,101.2,81,101.3,81.1,101.4z M84.3,111.5c0.1,0,0.2-0.2,0.1-0.3c-0.1-0.2-0.2-0.4-0.2-0.6c0-0.1-0.1-0.2-0.1-0.2
					c0-0.1-0.1-0.1-0.3-0.1c-0.1,0-0.2,0.1-0.2,0.2c0,0.2,0,0.3,0.1,0.5c0.1,0.1,0.2,0.3,0.3,0.4C84.1,111.5,84.2,111.6,84.3,111.5z
					 M81.6,102.8c0.4-0.3,0.4-0.4,0.2-0.6c-0.1,0.1-0.2,0.1-0.4,0.2c-0.1,0.1-0.1,0.2,0,0.3C81.4,102.7,81.5,102.7,81.6,102.8z"/>
				<path fill-rule="evenodd" clip-rule="evenodd" fill="#E86C36" d="M58.7,24.6c0-0.2-0.1-0.3-0.1-0.5c-0.1-0.5-0.1-0.9-0.4-1.4
					c-0.2-0.2-0.2-0.3-0.6-0.1c0,0.1,0,0.2,0,0.3c0.1,0.2,0.2,0.5,0.2,0.7c0.1,0.4,0.2,0.7,0.3,1.1c0.1,0.3,0.1,0.6,0.1,0.9
					c0,0.1,0,0.2,0.1,0.3c0.1,0.1,0.2,0.1,0.3,0c0.1-0.1,0.2-0.2,0.2-0.2c0.1,0.1,0.1,0.2,0,0.3c-0.1,0.1-0.1,0.2,0,0.3
					c0.3-0.1,0.2-0.2,0.2-0.4c0-0.2-0.1-0.4-0.2-0.7C58.9,25,58.8,24.8,58.7,24.6z M55.7,16.2c0.1,0.1,0.3,0.1,0.4,0
					c0-0.1,0.1-0.2,0-0.3c-0.1-0.3-0.2-0.5-0.3-0.7c-0.1-0.3-0.2-0.6-0.4-0.9l0.1,0c-0.2-0.3-0.3-0.6-0.5-1c0,0-0.1-0.1-0.2-0.1
					c0,0-0.1,0.1-0.1,0.1c0,0,0,0.1,0,0.1c0.2,0.3,0.2,0.6,0.3,0.9c0.1,0.3,0.1,0.6,0.2,0.9c0,0.1,0.1,0.3,0.1,0.4
					c0.1,0.1,0.2,0.2,0.3,0.3C55.7,16,55.6,16.1,55.7,16.2z M57.1,19.6c-0.1,0-0.1,0-0.2,0c-0.2,0-0.3,0-0.3,0.2
					c0,0.1,0,0.1,0.1,0.2c0.1,0.1,0.1,0.2,0.1,0.3c0,0.3,0.1,0.6,0.5,0.7c0.1,0,0.2,0,0.2,0c0,0,0-0.1,0-0.2
					c-0.1-0.2-0.2-0.3-0.2-0.5C57.2,20.1,57.2,19.9,57.1,19.6z M56.6,18.5c0-0.1,0.1-0.1,0.1-0.2c0-0.1,0-0.1,0-0.2
					c-0.1-0.2-0.3-0.5-0.4-0.7c-0.2,0.1-0.3,0.2-0.3,0.4c0.1,0.2,0.2,0.4,0.3,0.6C56.3,18.4,56.5,18.4,56.6,18.5z M57.5,22.1
					c0.1,0.1,0.2,0.1,0.4,0c0.2-0.1,0.1-0.4-0.1-0.5c-0.1,0.1-0.2,0.2-0.3,0.2C57.4,21.9,57.4,22,57.5,22.1z"/>
			</g>
			<g>
				<path fill-rule="evenodd" clip-rule="evenodd" fill="#E86C36" d="M104.9,95.2c-0.3,0.1-0.3,0.2-0.1,0.4
					c-0.3,0.2-0.4,0.3-0.1,0.5c0.2,0.1,0.4,0.3,0.6,0.4c0.2,0.1,0.4,0.2,0.5,0.3c0.1,0.2,0.3,0.2,0.4,0.4c0.1,0.1,0.1,0.1,0.2,0.1
					c0.4,0.3,0.7,0.6,1.1,0.9c0.4,0.3,0.7,0.6,1,0.9c0,0.1,0.2,0.1,0.2,0.1c0.1,0,0.2,0,0.3,0.1c0.1,0.1,0.3,0.3,0.4,0.4
					c0,0,0.1,0,0.2,0c-0.1-0.4-0.4-0.6-0.7-0.8c0.1-0.1,0.1-0.2,0-0.3c-0.5-0.3-0.8-0.7-1.2-1c-0.3-0.2-0.4-0.4-0.7-0.6
					c0,0,0-0.1-0.1-0.1c-0.2-0.2-0.2-0.4-0.5-0.4c-0.2-0.4-0.5-0.7-0.8-1c-0.1-0.1-0.2-0.2-0.3-0.3C105.1,95.2,105,95.2,104.9,95.2z
					 M112.8,103c0.1,0.1,0.2,0.2,0.3,0.3c0.1,0.1,0.2,0.3,0.4,0.4c0.1,0.1,0.2,0.2,0.4,0.3c0.2,0.2,0.4,0.4,0.6,0.6
					c0,0,0.1,0.1,0.1,0.2c0.1,0.2,0.2,0.2,0.5,0c0-0.3-0.3-0.4-0.6-0.5c-0.1-0.1-0.1-0.3-0.2-0.4c-0.3-0.3-0.5-0.5-0.8-0.8
					c-0.1-0.1-0.2-0.2-0.3-0.2C113,102.9,112.9,102.9,112.8,103z M102.7,94c0.1,0.1,0.2,0.1,0.3,0.2c0-0.1,0-0.2,0.1-0.3
					c0.2-0.2,0.1-0.4,0-0.5c-0.2-0.1-0.3-0.3-0.4-0.4c-0.1-0.1-0.2-0.2-0.3-0.2c-0.1,0-0.2,0-0.2,0c0,0,0,0.1,0,0.2
					c0,0.3,0.1,0.5,0.4,0.7C102.5,93.8,102.6,93.9,102.7,94z M111.9,101.9c0.1-0.1,0-0.3-0.1-0.3c-0.2-0.1-0.4-0.3-0.6-0.5
					c-0.1-0.1-0.1-0.1-0.2-0.2c-0.1-0.1-0.2-0.1-0.3,0c-0.1,0.1-0.1,0.2-0.1,0.3c0.1,0.1,0.2,0.3,0.4,0.5c0.1,0.1,0.3,0.2,0.5,0.2
					C111.7,102,111.8,102.1,111.9,101.9z M104.1,95c0.2-0.5,0.1-0.6-0.2-0.7c-0.1,0.1-0.2,0.3-0.2,0.4c-0.1,0.1,0,0.2,0.1,0.3
					C103.8,95,104,95,104.1,95z"/>
				<path fill-rule="evenodd" clip-rule="evenodd" fill="#E86C36" d="M31.9,29.2c-0.1-0.1-0.3-0.3-0.4-0.4c-0.3-0.4-0.7-0.9-1.2-1.1
					c-0.3-0.1-0.3-0.2-0.6,0.2c0.1,0.1,0.1,0.2,0.2,0.3c0.2,0.2,0.4,0.4,0.6,0.5c0.3,0.3,0.7,0.6,1,0.9c0.2,0.2,0.4,0.5,0.6,0.7
					c0.1,0.1,0.1,0.2,0.2,0.2c0.1,0.1,0.2,0.1,0.3-0.1c0-0.1,0-0.2,0.1-0.3c0.1,0,0.2,0.1,0.1,0.3c-0.1,0.2,0.1,0.2,0.2,0.3
					c0.2-0.2,0.1-0.3,0-0.5c-0.2-0.2-0.4-0.4-0.6-0.5C32.2,29.5,32,29.4,31.9,29.2z M24,22.8c0.2,0.1,0.4,0,0.3-0.2
					c0-0.1-0.1-0.2-0.1-0.3c-0.2-0.2-0.5-0.4-0.7-0.6c-0.3-0.2-0.6-0.4-0.9-0.7l0-0.1c-0.3-0.2-0.7-0.5-1-0.7c0,0-0.2,0-0.2,0
					c0,0,0,0.1,0,0.2c0,0,0,0.1,0.1,0.1c0.3,0.2,0.5,0.5,0.8,0.7c0.3,0.2,0.5,0.5,0.7,0.7c0.1,0.1,0.2,0.2,0.3,0.3
					c0.1,0.1,0.3,0.1,0.4,0.1C23.8,22.6,23.9,22.7,24,22.8z M27.4,25.3c-0.1,0-0.1,0.1-0.2,0.1c-0.2,0.1-0.3,0.2-0.1,0.3
					c0,0.1,0.1,0.1,0.2,0.1c0.2,0,0.2,0.1,0.3,0.2c0.2,0.3,0.4,0.5,0.9,0.5c0.1,0,0.2-0.1,0.2-0.1c0-0.1,0-0.1-0.1-0.2
					c-0.2-0.1-0.3-0.2-0.5-0.4C27.8,25.7,27.6,25.5,27.4,25.3z M26.2,24.5c0-0.1,0-0.2,0-0.2c0-0.1-0.1-0.1-0.1-0.1
					c-0.3-0.2-0.5-0.3-0.8-0.5c-0.2,0.2-0.2,0.4,0,0.5c0.2,0.2,0.4,0.3,0.6,0.4C25.9,24.6,26,24.5,26.2,24.5z M29.2,27.5
					c0.2,0,0.3,0,0.3-0.2c0.1-0.2-0.1-0.4-0.4-0.5c0,0.1-0.1,0.2-0.1,0.4C29,27.4,29,27.5,29.2,27.5z"/>
			</g>
			<g>
				<path fill-rule="evenodd" clip-rule="evenodd" fill="#E86C36" d="M117.1,75.1c-0.2,0.2-0.2,0.3,0.1,0.4
					c-0.2,0.3-0.2,0.4,0.1,0.5c0.2,0,0.5,0.1,0.7,0.1c0.2,0,0.4,0,0.6,0.1c0.2,0.1,0.4,0.1,0.5,0.1c0.1,0,0.2,0,0.2,0
					c0.5,0.1,1,0.2,1.5,0.3c0.5,0.1,0.9,0.2,1.3,0.4c0.1,0,0.2,0.1,0.3,0c0.1-0.1,0.2-0.1,0.3,0c0.2,0.1,0.4,0.1,0.6,0.1
					c0.1,0,0.1,0,0.2-0.1c-0.3-0.3-0.7-0.3-1.1-0.3c0-0.1,0-0.3-0.2-0.3c-0.6,0-1.1-0.3-1.6-0.3c-0.3,0-0.6-0.2-1-0.2
					c0,0-0.1-0.1-0.1-0.1c-0.2-0.1-0.4-0.3-0.7-0.1c-0.4-0.2-0.8-0.4-1.2-0.5c-0.1,0-0.3,0-0.4-0.2C117.3,75,117.2,75,117.1,75.1z
					 M128.2,78.2c0.2,0.1,0.3,0.1,0.4,0.2c0.2,0.1,0.4,0.2,0.6,0.2c0.2,0,0.3,0,0.5,0.1c0.3,0.1,0.6,0.1,0.8,0.2
					c0.1,0,0.1,0.1,0.2,0.1c0.2,0.1,0.3,0.1,0.5-0.2c-0.2-0.3-0.5-0.2-0.8-0.2c-0.1-0.1-0.3-0.2-0.4-0.2c-0.4-0.1-0.8-0.2-1.1-0.4
					c-0.2-0.1-0.3,0-0.4,0C128.3,78,128.3,78.1,128.2,78.2z M114.6,75c0.1,0,0.2,0,0.4,0.1c0-0.1-0.1-0.2-0.1-0.3
					c0-0.3-0.1-0.4-0.3-0.4c-0.2,0-0.4-0.1-0.6-0.2c-0.1-0.1-0.3,0-0.4,0c-0.1,0-0.1,0.1-0.2,0.1c0,0,0,0.1,0.1,0.2
					c0.2,0.2,0.4,0.4,0.7,0.4C114.3,74.9,114.4,75,114.6,75z M126.8,77.7c0-0.1-0.1-0.2-0.3-0.3c-0.3,0-0.5-0.1-0.8-0.1
					c-0.1,0-0.2,0-0.3-0.1c-0.1,0-0.2,0-0.3,0.2c-0.1,0.1,0,0.2,0.1,0.3c0.2,0.1,0.3,0.1,0.6,0.2c0.1,0,0.4,0,0.6,0
					C126.7,77.9,126.8,77.9,126.8,77.7z M116.3,75.3c-0.1-0.5-0.2-0.6-0.6-0.5c0,0.1,0,0.3,0,0.4c0,0.1,0.1,0.2,0.3,0.2
					C116.1,75.4,116.2,75.4,116.3,75.3z"/>
				<path fill-rule="evenodd" clip-rule="evenodd" fill="#E86C36" d="M22.9,52.4c-0.2-0.1-0.4-0.1-0.6-0.2c-0.5-0.2-1-0.4-1.6-0.4
					c-0.4,0-0.4,0-0.4,0.4c0.1,0,0.2,0.1,0.3,0.2c0.3,0.1,0.6,0.1,0.8,0.2c0.4,0.1,0.9,0.2,1.3,0.3c0.3,0.1,0.6,0.2,1,0.4
					c0.1,0,0.2,0.1,0.3,0.1c0.2,0,0.2-0.1,0.2-0.2c0-0.1-0.1-0.2-0.1-0.3c0.1,0,0.2,0,0.3,0.2c0,0.2,0.2,0.2,0.3,0.1
					c0.1-0.3-0.1-0.3-0.3-0.4c-0.2-0.1-0.5-0.1-0.8-0.2C23.4,52.5,23.1,52.5,22.9,52.4z M12.6,50.5c0.2,0,0.3-0.2,0.2-0.3
					c-0.1-0.1-0.2-0.2-0.3-0.2c-0.3-0.1-0.6-0.1-0.9-0.2c-0.4-0.1-0.7-0.1-1.1-0.2l0-0.1c-0.4,0-0.8-0.1-1.3-0.1
					c-0.1,0-0.1,0.1-0.2,0.1c0,0,0,0.1,0.1,0.2c0,0,0.1,0.1,0.1,0.1c0.4,0,0.7,0.2,1,0.2c0.3,0.1,0.7,0.2,1,0.3
					c0.1,0,0.3,0.1,0.5,0.1c0.1,0,0.3-0.1,0.4-0.1C12.3,50.4,12.5,50.5,12.6,50.5z M16.9,51.1c-0.1,0.1-0.1,0.1-0.1,0.2
					c-0.1,0.2-0.1,0.3,0.1,0.3c0.1,0,0.2,0,0.2,0c0.1-0.1,0.2,0,0.4,0.1c0.3,0.2,0.6,0.2,1,0c0.1,0,0.1-0.1,0.1-0.2
					c0-0.1-0.1-0.1-0.2-0.1c-0.2,0-0.4,0-0.6-0.1C17.5,51.3,17.2,51.2,16.9,51.1z M15.4,50.9c0-0.1-0.1-0.1-0.1-0.2
					c0,0-0.1-0.1-0.2-0.1c-0.3,0-0.6,0-1-0.1c0,0.3,0,0.4,0.2,0.4c0.3,0,0.5,0.1,0.8,0.1C15.2,51.1,15.3,51,15.4,50.9z M19.7,52.2
					c0.2,0,0.2-0.2,0.2-0.3c0-0.2-0.3-0.3-0.6-0.2c0,0.1,0,0.3,0.1,0.4C19.4,52.1,19.5,52.2,19.7,52.2z"/>
			</g>
			<g>
				<path fill-rule="evenodd" clip-rule="evenodd" fill="#E86C36" d="M116.7,52.1c-0.1,0.2,0,0.3,0.4,0.3c0,0.3,0.1,0.4,0.4,0.3
					c0.2-0.1,0.4-0.2,0.6-0.3c0.2-0.1,0.4-0.2,0.6-0.2c0.2,0,0.4-0.1,0.5-0.1c0.1,0,0.2,0,0.2-0.1c0.5-0.1,1-0.3,1.4-0.5
					c0.4-0.2,0.9-0.3,1.4-0.3c0.1,0,0.2-0.1,0.2-0.1c0-0.1,0.1-0.1,0.2-0.2c0.2,0,0.4-0.1,0.6-0.1c0.1,0,0.1-0.1,0.2-0.2
					c-0.4-0.2-0.8,0-1.1,0.2c-0.1-0.1-0.2-0.2-0.3-0.1c-0.5,0.2-1.1,0.2-1.6,0.5c-0.3,0.1-0.6,0.1-0.9,0.3c0,0-0.1,0-0.2,0
					c-0.2,0-0.5,0-0.6,0.2c-0.5,0-0.9,0-1.3,0.1c-0.1,0-0.3,0.1-0.4,0.1C116.9,51.9,116.8,52,116.7,52.1z M128.1,49.7
					c0.2,0,0.3,0,0.5-0.1c0.2,0,0.4,0,0.6-0.1c0.1-0.1,0.3-0.1,0.4-0.1c0.3-0.1,0.6-0.1,0.8-0.2c0.1,0,0.1,0,0.2,0
					c0.3,0,0.3-0.1,0.3-0.4c-0.3-0.1-0.6,0-0.8,0.2c-0.2,0-0.3,0-0.4,0c-0.4,0.1-0.8,0.2-1.2,0.2c-0.2,0-0.2,0.1-0.3,0.2
					C128.1,49.4,128,49.5,128.1,49.7z M114.5,53.2c0.1,0,0.2-0.1,0.4-0.1c-0.1-0.1-0.2-0.1-0.2-0.2c-0.1-0.2-0.3-0.3-0.5-0.2
					c-0.2,0.1-0.4,0.1-0.6,0.1c-0.2,0-0.3,0.1-0.4,0.2c-0.1,0-0.1,0.1-0.1,0.2c0,0,0.1,0.1,0.2,0.1c0.3,0.1,0.6,0.2,0.8,0
					C114.2,53.2,114.4,53.2,114.5,53.2z M126.6,49.9c-0.1-0.1-0.2-0.2-0.4-0.1c-0.2,0.1-0.5,0.2-0.7,0.2c-0.1,0-0.2,0.1-0.3,0.1
					c-0.1,0-0.2,0.1-0.2,0.3c0,0.1,0.1,0.2,0.3,0.2c0.2,0,0.4,0,0.6-0.1c0.1-0.1,0.3-0.2,0.5-0.3C126.6,50.1,126.7,50,126.6,49.9z
					 M116.2,52.6c-0.4-0.4-0.5-0.4-0.8-0.2c0.1,0.1,0.2,0.2,0.3,0.4c0.1,0.1,0.2,0.1,0.3,0C116.1,52.8,116.1,52.7,116.2,52.6z"/>
				<path fill-rule="evenodd" clip-rule="evenodd" fill="#E86C36" d="M22.8,75.6c-0.2,0-0.4,0.1-0.6,0.1c-0.6,0.1-1.1,0.1-1.6,0.4
					c-0.3,0.2-0.3,0.2-0.1,0.6c0.1,0,0.2,0,0.4,0c0.3-0.1,0.6-0.2,0.8-0.2c0.4-0.1,0.9-0.2,1.3-0.3c0.3-0.1,0.7-0.1,1-0.1
					c0.1,0,0.2,0,0.3-0.1c0.2-0.1,0.2-0.2,0-0.3c-0.1-0.1-0.2-0.2-0.3-0.2c0.1-0.1,0.2-0.1,0.3,0c0.1,0.1,0.2,0.1,0.3,0
					c-0.1-0.3-0.3-0.2-0.5-0.2c-0.3,0-0.5,0.1-0.8,0.2C23.2,75.5,23,75.6,22.8,75.6z M12.8,78.7c0.2-0.1,0.2-0.3,0-0.4
					c-0.1,0-0.2-0.1-0.4,0c-0.3,0.1-0.6,0.2-0.9,0.3c-0.4,0.1-0.7,0.3-1.1,0.4l0-0.1c-0.4,0.2-0.8,0.3-1.1,0.5
					c-0.1,0-0.1,0.1-0.1,0.2c0,0,0.1,0.1,0.1,0.1c0,0,0.1,0,0.2,0c0.3-0.2,0.7-0.2,1-0.3c0.3-0.1,0.7-0.1,1-0.2
					c0.2,0,0.3-0.1,0.4-0.1c0.1-0.1,0.2-0.2,0.3-0.3C12.5,78.7,12.7,78.8,12.8,78.7z M16.9,77.3c0,0.1,0,0.1,0,0.2
					c0,0.2,0,0.3,0.3,0.3c0.1,0,0.1,0,0.2-0.1c0.1-0.1,0.2-0.1,0.4-0.1c0.4,0,0.7-0.1,0.9-0.5c0-0.1,0-0.2,0-0.2c0,0-0.1,0-0.2,0
					c-0.2,0.1-0.4,0.2-0.6,0.2C17.5,77.1,17.2,77.2,16.9,77.3z M15.5,77.8c-0.1,0-0.2-0.1-0.2-0.1c-0.1,0-0.1,0-0.2,0
					c-0.3,0.1-0.6,0.3-0.9,0.4c0.1,0.2,0.3,0.3,0.4,0.3c0.3-0.1,0.5-0.2,0.7-0.3C15.4,78.1,15.4,77.9,15.5,77.8z M19.9,76.9
					c0.1-0.1,0.1-0.2,0-0.4c-0.2-0.2-0.5-0.1-0.6,0.1c0.1,0.1,0.2,0.2,0.3,0.3C19.6,77,19.7,77,19.9,76.9z"/>
			</g>
			<g>
				<path fill-rule="evenodd" clip-rule="evenodd" fill="#E86C36" d="M103.9,32.3c0.1,0.2,0.2,0.3,0.5,0.1c0.2,0.3,0.3,0.3,0.5,0.1
					c0.2-0.2,0.3-0.3,0.4-0.5c0.1-0.2,0.2-0.4,0.4-0.5c0.2-0.1,0.3-0.2,0.4-0.4c0.1-0.1,0.1-0.1,0.2-0.2c0.3-0.3,0.7-0.7,1-1
					c0.3-0.4,0.6-0.6,1-0.9c0.1,0,0.2-0.1,0.1-0.2c0-0.1,0-0.2,0.1-0.2c0.2-0.1,0.3-0.3,0.4-0.4c0,0,0-0.1,0.1-0.2
					c-0.5,0.1-0.6,0.4-0.8,0.7c-0.1-0.1-0.3-0.1-0.4,0c-0.3,0.4-0.8,0.7-1.1,1.1c-0.2,0.2-0.5,0.4-0.6,0.7c0,0-0.1,0-0.1,0.1
					c-0.2,0.1-0.5,0.2-0.4,0.5c-0.4,0.2-0.8,0.4-1.1,0.7c-0.1,0.1-0.2,0.2-0.4,0.3C103.9,32.1,103.9,32.2,103.9,32.3z M112.4,25
					c0.1-0.1,0.2-0.2,0.4-0.3c0.2-0.1,0.3-0.2,0.4-0.4c0.1-0.1,0.2-0.2,0.3-0.3c0.2-0.2,0.4-0.4,0.6-0.6c0,0,0.1-0.1,0.2-0.1
					c0.3-0.1,0.3-0.2,0-0.5c-0.4,0-0.5,0.3-0.6,0.5c-0.2,0.1-0.3,0.1-0.4,0.2c-0.3,0.2-0.6,0.5-0.9,0.7c-0.1,0.1-0.2,0.2-0.2,0.3
					C112.2,24.8,112.3,24.9,112.4,25z M102.6,34.3c0.1-0.1,0.1-0.1,0.3-0.3c-0.1,0-0.2,0-0.3-0.1c-0.2-0.2-0.4-0.1-0.6,0
					c-0.2,0.1-0.3,0.3-0.5,0.4c-0.1,0.1-0.2,0.2-0.2,0.3c0,0.1,0,0.2,0,0.2c0,0,0.1,0,0.2,0c0.3,0,0.6-0.1,0.7-0.4
					C102.3,34.4,102.5,34.4,102.6,34.3z M111.2,25.9c-0.1-0.1-0.3,0-0.4,0.1c-0.2,0.2-0.3,0.4-0.5,0.5c-0.1,0.1-0.1,0.1-0.2,0.2
					c-0.1,0.1-0.1,0.2,0,0.3c0.1,0.1,0.2,0.1,0.3,0.1c0.2-0.1,0.3-0.2,0.5-0.4c0.1-0.1,0.2-0.3,0.3-0.5
					C111.3,26.1,111.4,26,111.2,25.9z M103.7,33c-0.5-0.2-0.7-0.1-0.7,0.2c0.1,0.1,0.3,0.1,0.4,0.2c0.1,0.1,0.2,0,0.3-0.1
					C103.7,33.2,103.7,33.1,103.7,33z"/>
				<path fill-rule="evenodd" clip-rule="evenodd" fill="#E86C36" d="M35.4,95.8c-0.1,0.1-0.3,0.3-0.4,0.4c-0.5,0.3-0.9,0.6-1.2,1.1
					c-0.1,0.3-0.2,0.3,0.2,0.6c0.1-0.1,0.2-0.1,0.3-0.2c0.2-0.2,0.4-0.4,0.6-0.6c0.3-0.3,0.6-0.6,0.9-0.9c0.3-0.2,0.5-0.4,0.8-0.6
					c0.1-0.1,0.2-0.1,0.2-0.2c0.1-0.1,0.1-0.2-0.1-0.3c-0.1,0-0.2,0-0.4-0.1c0.1-0.1,0.1-0.2,0.3-0.1c0.2,0,0.2-0.1,0.3-0.2
					c-0.2-0.2-0.4-0.1-0.5,0c-0.2,0.1-0.4,0.4-0.6,0.5C35.7,95.5,35.5,95.7,35.4,95.8z M28.4,103c0.1-0.1,0-0.3-0.2-0.3
					c-0.1,0-0.2,0.1-0.3,0.1c-0.2,0.2-0.4,0.4-0.6,0.6c-0.2,0.3-0.5,0.5-0.7,0.8l-0.1,0c-0.2,0.3-0.5,0.6-0.7,0.9c0,0,0,0.1,0,0.2
					c0,0,0.1,0,0.2,0c0.1,0,0.1,0,0.1-0.1c0.2-0.3,0.5-0.5,0.8-0.7c0.2-0.2,0.5-0.4,0.8-0.7c0.1-0.1,0.2-0.2,0.3-0.3
					c0.1-0.1,0.1-0.3,0.1-0.4C28.2,103.2,28.3,103.1,28.4,103z M31.1,99.9c0,0.1,0.1,0.1,0.1,0.2c0.1,0.2,0.2,0.2,0.4,0.1
					c0.1,0,0.1-0.1,0.1-0.2c0-0.1,0.1-0.2,0.3-0.3c0.3-0.2,0.5-0.4,0.5-0.8c0-0.1-0.1-0.2-0.1-0.2c-0.1,0-0.2,0-0.2,0.1
					c-0.1,0.1-0.3,0.3-0.4,0.5C31.6,99.5,31.3,99.7,31.1,99.9z M30.2,101c-0.1,0-0.2,0-0.3,0c-0.1,0-0.1,0.1-0.2,0.1
					c-0.2,0.2-0.4,0.5-0.5,0.7c0.3,0.1,0.4,0.2,0.5,0c0.2-0.2,0.3-0.4,0.5-0.6C30.3,101.3,30.2,101.1,30.2,101z M33.5,98.2
					c0-0.1,0-0.3-0.2-0.3c-0.2-0.1-0.5,0.1-0.5,0.3c0.1,0,0.3,0.1,0.4,0.1C33.4,98.4,33.5,98.4,33.5,98.2z"/>
			</g>
			<g>
				<path fill-rule="evenodd" clip-rule="evenodd" fill="#E86C36" d="M81.4,23.1c0.2,0.2,0.3,0.1,0.5-0.1c0.3,0.2,0.4,0.1,0.5-0.1
					c0-0.2,0.1-0.4,0.1-0.6c0-0.2,0-0.4,0.1-0.5c0.1-0.2,0.1-0.3,0.1-0.5c0-0.1,0-0.1,0-0.2c0.1-0.4,0.2-0.9,0.3-1.3
					c0.1-0.4,0.2-0.8,0.4-1.2c0-0.1,0.1-0.2,0-0.2c-0.1-0.1-0.1-0.2,0-0.2c0.1-0.2,0.1-0.3,0.1-0.5c0-0.1,0-0.1-0.1-0.2
					c-0.4,0.3-0.3,0.6-0.3,0.9c-0.1,0-0.3,0-0.3,0.2c0,0.5-0.3,0.9-0.3,1.4c0,0.3-0.2,0.5-0.2,0.8c0,0-0.1,0.1-0.1,0.1
					c-0.1,0.2-0.3,0.4-0.1,0.6c-0.3,0.3-0.4,0.7-0.5,1c0,0.1,0,0.3-0.2,0.4C81.3,22.9,81.3,23,81.4,23.1z M84.7,13.3
					c0.1-0.1,0.1-0.3,0.2-0.4c0.1-0.2,0.2-0.3,0.2-0.5c0-0.1,0-0.3,0.1-0.4c0.1-0.2,0.1-0.5,0.2-0.7c0-0.1,0.1-0.1,0.1-0.2
					c0.1-0.2,0.1-0.3-0.2-0.4c-0.3,0.2-0.3,0.4-0.2,0.7c-0.1,0.1-0.2,0.2-0.2,0.3c-0.1,0.3-0.2,0.7-0.4,1c-0.1,0.1,0,0.2,0,0.3
					C84.4,13.2,84.5,13.3,84.7,13.3z M81.4,25.3c0-0.1,0-0.2,0.1-0.3c-0.1,0-0.2,0.1-0.3,0.1c-0.3,0-0.4,0.1-0.4,0.3
					c-0.1,0.2-0.1,0.4-0.2,0.5c-0.1,0.1,0,0.2,0,0.4c0,0.1,0.1,0.1,0.1,0.2c0,0,0.1,0,0.2-0.1c0.2-0.2,0.4-0.4,0.4-0.6
					C81.3,25.5,81.3,25.4,81.4,25.3z M84.2,14.5c-0.1,0-0.2,0.1-0.3,0.2c0,0.2-0.1,0.4-0.1,0.7c0,0.1,0,0.2-0.1,0.2
					c0,0.1,0,0.2,0.2,0.2c0.1,0,0.2,0,0.3-0.1c0.1-0.1,0.1-0.3,0.2-0.5c0-0.1,0-0.3,0-0.5C84.3,14.7,84.3,14.6,84.2,14.5z
					 M81.7,23.8c-0.5,0.1-0.6,0.2-0.5,0.5c0.1,0,0.3,0,0.5,0c0.1,0,0.2-0.1,0.2-0.2C81.8,23.9,81.7,23.8,81.7,23.8z"/>
				<path fill-rule="evenodd" clip-rule="evenodd" fill="#E86C36" d="M57.8,105.5c-0.1,0.2-0.1,0.3-0.2,0.5
					c-0.2,0.5-0.5,0.9-0.4,1.4c0,0.3,0,0.3,0.5,0.4c0.1-0.1,0.1-0.2,0.2-0.3c0.1-0.2,0.1-0.5,0.2-0.7c0.1-0.4,0.2-0.8,0.3-1.1
					c0.1-0.3,0.2-0.6,0.4-0.8c0-0.1,0.1-0.2,0.1-0.3c0-0.1-0.1-0.2-0.2-0.2c-0.1,0-0.2,0.1-0.3,0.1c0-0.1,0-0.2,0.2-0.2
					c0.2,0,0.2-0.1,0.1-0.3c-0.3-0.1-0.3,0.1-0.4,0.2c-0.1,0.2-0.1,0.5-0.2,0.7C57.9,105.1,57.9,105.3,57.8,105.5z M55.8,114.5
					c0-0.2-0.2-0.3-0.3-0.2c-0.1,0.1-0.2,0.2-0.2,0.3c-0.1,0.3-0.1,0.5-0.2,0.8c-0.1,0.3-0.1,0.7-0.2,1l-0.1,0
					c0,0.4-0.1,0.7-0.1,1.1c0,0,0.1,0.1,0.1,0.2c0,0,0.1,0,0.2-0.1c0,0,0.1-0.1,0.1-0.1c0-0.3,0.2-0.6,0.3-0.9
					c0.1-0.3,0.2-0.6,0.3-0.9c0-0.1,0.1-0.3,0.1-0.4c0-0.1-0.1-0.2-0.1-0.4C55.7,114.7,55.8,114.6,55.8,114.5z M56.5,110.8
					c0.1,0,0.1,0.1,0.2,0.1c0.2,0.1,0.3,0.1,0.4-0.1c0-0.1,0-0.1,0-0.2c-0.1-0.1,0-0.2,0.1-0.3c0.2-0.3,0.2-0.6,0-0.9
					c0,0-0.1-0.1-0.2-0.1c-0.1,0-0.1,0.1-0.1,0.1c0,0.2,0,0.4-0.1,0.5C56.6,110.3,56.6,110.5,56.5,110.8z M56.3,112.1
					c-0.1,0-0.2,0.1-0.2,0.1c0,0-0.1,0.1-0.1,0.2c0,0.3,0,0.6-0.1,0.9c0.3,0,0.4,0,0.4-0.2c0-0.2,0.1-0.5,0.1-0.7
					C56.5,112.2,56.4,112.1,56.3,112.1z M57.6,108.3c0-0.1-0.2-0.2-0.3-0.2c-0.2,0-0.4,0.3-0.2,0.5c0.1,0,0.3,0,0.4-0.1
					C57.6,108.5,57.6,108.5,57.6,108.3z"/>
			</g>
			<g>
				<path fill-rule="evenodd" clip-rule="evenodd" fill="#E86C36" d="M101.7,116.8c0-0.2,0.1-0.4-0.1-0.5c-0.3-0.2-0.5-0.5-0.7-0.8
					c-0.5-0.6-0.8-1.4-1.2-2c-0.2-0.4-0.4-0.7-0.6-1.1c-0.2-0.4-0.4-0.7-0.7-1.1c0,0,0,0,0,0c-0.1-0.1-0.1-0.2-0.2-0.3
					c-0.1-0.2-0.4-0.3-0.5-0.3c-0.1,0.1-0.2,0.3,0,0.6c0,0,0,0.1,0,0.1c0.5,0.7,0.9,1.4,1.3,2.1c0.3,0.5,0.6,0.9,0.8,1.4
					c0.1,0.2,0.3,0.3,0.3,0.4c0,0.3,0.2,0.3,0.4,0.4c0,0,0.1,0.1,0.1,0.1c0.2,0.3,0.4,0.6,0.6,0.9
					C101.3,116.9,101.6,117,101.7,116.8z M93.1,104.4c0.4,0.6,0.7,1.2,1.1,1.8c0.3,0.4,0.6,0.8,0.9,1.3c0.3,0.5,0.7,0.9,0.9,1.5
					c0,0.1,0.2,0.2,0.3,0.2c0.1,0,0.2-0.2,0.1-0.3c-0.2-0.4-0.2-0.8-0.5-1.1c-0.2-0.3-0.5-0.6-0.7-0.9c-0.3-0.4-0.5-0.8-0.7-1.2
					c-0.3-0.5-0.6-1-0.9-1.5c-0.2-0.3-0.4-0.4-0.7-0.3C92.9,104,93,104.3,93.1,104.4z M92.1,102.4c0.1-0.2,0-0.4-0.2-0.5
					c-0.2-0.1-0.2-0.3-0.3-0.5c0-0.1-0.1-0.2-0.2-0.3c-0.2-0.3-0.4-0.6-0.6-0.9c-0.3-0.4-0.3-0.4-0.7-0.3c0.3,0.6,0.6,1.1,1,1.6
					c0.2,0.2,0.3,0.4,0.5,0.6C91.7,102.4,91.9,102.5,92.1,102.4z M103.9,119.3c-0.2-0.2-0.5-0.5-0.7-0.7c0,0-0.1,0-0.1,0
					c0,0,0,0.1,0,0.1c-0.1,0.2-0.2,0.3,0,0.5c0.1,0.2,0.3,0.3,0.5,0.5c0.2,0.1,0.3,0.1,0.5,0C104.1,119.6,104,119.5,103.9,119.3z
					 M97.3,109.7c-0.1-0.2-0.3-0.3-0.4-0.2c-0.1,0.1-0.2,0.3-0.2,0.4c0,0.1,0,0.3,0.1,0.3c0.1,0.1,0.3,0.1,0.4,0.1
					C97.3,110.3,97.4,109.9,97.3,109.7z"/>
				<path fill-rule="evenodd" clip-rule="evenodd" fill="#E86C36" d="M35.3,11.7c0.2,0.3,0.4,0.7,0.6,1c0.2,0.4,0.5,0.7,0.7,1.1
					c0.1,0.2,0.3,0.4,0.5,0.5c0.2-0.1,0.3-0.2,0.2-0.4c-0.2-0.4-0.3-0.8-0.5-1.1c-0.6-1-1.3-1.9-1.9-2.8c-0.2-0.3-0.3-0.5-0.5-0.7
					C34.2,9.2,34.1,9,34,8.9c-0.1-0.1-0.2-0.1-0.3,0c-0.1,0-0.1,0.2-0.1,0.2c0.2,0.3,0.2,0.7,0.6,0.9c0.1,0,0.1,0.1,0.2,0.2
					C34.6,10.7,35,11.2,35.3,11.7z M42.4,22.8c0.2,0.1,0.3,0.1,0.4,0.1c0.2-0.2,0.2-0.2,0-0.5c0,0-0.1-0.1-0.1-0.1
					c-0.2-0.6-0.6-1.1-1-1.5c-0.3-0.3-0.5-0.6-0.6-1c-0.2-0.3-0.4-0.6-0.6-0.8c-0.3,0.2-0.3,0.2-0.2,0.4c0.2,0.3,0.2,0.8,0.7,1
					c0,0,0,0,0,0c0.1,0,0.2,0.1,0.2,0.1c0,0.1-0.1,0.2-0.1,0.3c0.1,0.1,0.2,0.1,0.3,0.2c0.1,0.1,0.2,0.2,0.2,0.3
					c0,0.2,0.1,0.3,0.2,0.4c0.1,0.1,0.3,0.3,0.3,0.4C42.2,22.3,42.3,22.5,42.4,22.8z M39.1,17.5c0-0.1,0.1-0.2,0.1-0.4
					c-0.1-0.4-0.3-0.8-0.6-1.1c-0.1-0.1-0.2-0.2-0.4-0.1c-0.1,0.1-0.1,0.2-0.1,0.4c0,0.1,0.1,0.1,0.1,0.2c0.1,0.2,0.2,0.3,0.3,0.5
					C38.6,17.2,38.8,17.5,39.1,17.5z M44.4,24.8c-0.1-0.1-0.2-0.1-0.3-0.1c-0.1,0-0.2,0.2-0.1,0.3c0,0.1,0.1,0.3,0.2,0.4
					c0.1,0.3,0.3,0.4,0.5,0.3c0.2-0.1,0.2-0.3,0.1-0.6C44.6,25,44.5,24.9,44.4,24.8z M43.6,24.1c0.3-0.2,0.3-0.5-0.2-1
					c-0.1,0.2-0.2,0.4-0.3,0.6c0,0.1,0,0.3,0.1,0.4C43.3,24.2,43.4,24.2,43.6,24.1z"/>
				<path fill-rule="evenodd" clip-rule="evenodd" fill="#E86C36" d="M19.4,92.1c0.1-0.3-0.1-0.4-0.6-0.2c-0.1-0.4-0.2-0.4-0.6-0.2
					c-0.3,0.2-0.6,0.4-0.9,0.6c-0.3,0.2-0.5,0.4-0.8,0.5c-0.3,0.1-0.5,0.3-0.7,0.4c-0.1,0.1-0.2,0.1-0.3,0.2
					c-0.6,0.4-1.3,0.7-1.9,1.1c-0.6,0.4-1.2,0.7-1.9,0.9c-0.1,0-0.3,0.2-0.3,0.2c0,0.2-0.1,0.2-0.3,0.3c-0.3,0.1-0.5,0.3-0.8,0.4
					c-0.1,0-0.1,0.2-0.2,0.3c0.7,0,1.1-0.4,1.5-0.7c0.1,0.1,0.3,0.2,0.5,0c0.7-0.5,1.5-0.8,2.1-1.2c0.4-0.3,0.9-0.4,1.2-0.7
					c0.1,0,0.2,0,0.2-0.1c0.3-0.1,0.7-0.2,0.8-0.5c0.7-0.2,1.3-0.4,1.8-0.7c0.2-0.1,0.4-0.2,0.6-0.3C19.3,92.4,19.4,92.2,19.4,92.1z
					 M3.9,99.9c-0.2,0.1-0.4,0.2-0.6,0.3c-0.3,0.1-0.6,0.2-0.8,0.4c-0.2,0.1-0.4,0.2-0.6,0.4c-0.4,0.2-0.8,0.4-1.1,0.6
					c-0.1,0-0.2,0.1-0.3,0.1c-0.4,0.1-0.5,0.2-0.3,0.6c0.5,0,0.8-0.3,1-0.5c0.2-0.1,0.4-0.1,0.6-0.2c0.5-0.2,1.1-0.5,1.6-0.7
					c0.2-0.1,0.3-0.2,0.4-0.4C3.9,100.1,3.9,100,3.9,99.9z M22.4,89.8c-0.1,0.1-0.3,0.2-0.5,0.3c0.2,0.1,0.3,0.1,0.3,0.1
					c0.2,0.2,0.4,0.2,0.8,0c0.3-0.2,0.6-0.3,0.9-0.4c0.2-0.1,0.4-0.2,0.5-0.4c0.1-0.1,0.1-0.2,0.1-0.3c0,0-0.2-0.1-0.2-0.1
					c-0.4,0-0.8,0.1-1.2,0.4C22.8,89.7,22.6,89.7,22.4,89.8z M5.9,99c0.1,0.1,0.3,0.1,0.5,0c0.3-0.2,0.7-0.4,1-0.6
					c0.1-0.1,0.2-0.1,0.4-0.2C8,98,8,97.9,8,97.8c-0.1-0.1-0.2-0.2-0.4-0.1c-0.3,0.1-0.5,0.2-0.9,0.4c-0.2,0.1-0.4,0.3-0.6,0.5
					C5.9,98.7,5.8,98.9,5.9,99z M20.1,91.2c0.6,0.3,0.8,0.2,1.1-0.2c-0.1-0.1-0.3-0.2-0.5-0.3c-0.2-0.1-0.3,0-0.5,0.1
					C20.2,91,20.2,91.1,20.1,91.2z"/>
				<path fill-rule="evenodd" clip-rule="evenodd" fill="#E86C36" d="M113.6,41.5c0.3-0.1,0.6-0.3,0.8-0.4c0.8-0.4,1.7-0.7,2.3-1.3
					c0.4-0.4,0.4-0.4,0.1-0.7c-0.2,0.1-0.4,0.1-0.5,0.2c-0.4,0.2-0.8,0.5-1.2,0.7c-0.6,0.3-1.2,0.7-1.9,1c-0.5,0.2-1,0.4-1.5,0.6
					c-0.2,0.1-0.3,0.1-0.5,0.2c-0.2,0.1-0.2,0.3,0,0.3c0.1,0.1,0.3,0.1,0.5,0.1c-0.1,0.1-0.3,0.2-0.5,0.1c-0.2-0.1-0.4,0-0.5,0.2
					c0.2,0.3,0.5,0.1,0.7,0c0.4-0.2,0.8-0.4,1.2-0.6C113,41.8,113.3,41.6,113.6,41.5z M128,33.1c-0.2,0.2-0.2,0.4,0.1,0.4
					c0.2,0,0.4,0,0.5-0.1c0.4-0.2,0.9-0.5,1.3-0.7c0.5-0.3,1-0.6,1.5-0.9l0.1,0.1c0.5-0.4,1.1-0.7,1.6-1.1c0.1,0,0.1-0.2,0.1-0.3
					c0,0-0.2-0.1-0.2-0.1c-0.1,0-0.2,0-0.2,0.1c-0.4,0.4-1,0.5-1.5,0.8c-0.5,0.3-1,0.5-1.5,0.8c-0.2,0.1-0.5,0.2-0.6,0.4
					c-0.2,0.1-0.3,0.3-0.4,0.4C128.4,33,128.1,33,128,33.1z M122.2,36.7c0-0.1,0-0.2,0-0.2c0-0.3-0.1-0.3-0.4-0.2
					c-0.1,0-0.2,0.1-0.3,0.2c-0.1,0.2-0.3,0.2-0.5,0.3c-0.5,0.2-1,0.5-1.2,0.9c0,0.1,0,0.2,0.1,0.2c0.1,0,0.2,0,0.3-0.1
					c0.3-0.2,0.5-0.4,0.8-0.5C121.4,37.2,121.8,37,122.2,36.7z M124.2,35.4c0.1,0,0.2,0,0.4,0c0.1,0,0.2-0.1,0.3-0.1
					c0.4-0.3,0.8-0.6,1.2-0.9c-0.3-0.2-0.4-0.2-0.7-0.1c-0.4,0.2-0.7,0.4-1,0.7C124.2,35.1,124.2,35.3,124.2,35.4z M117.8,38.6
					c-0.1,0.2-0.1,0.3,0.1,0.4c0.3,0.1,0.7-0.1,0.9-0.4c-0.2-0.1-0.3-0.1-0.5-0.2C118.1,38.4,118,38.4,117.8,38.6z"/>
			</g>
			<g>
				<path fill-rule="evenodd" clip-rule="evenodd" fill="#E86C36" d="M102.8,12.1c-0.2,0.1-0.4,0.2-0.4,0.4
					c-0.1,0.3-0.3,0.6-0.4,0.9c-0.3,0.7-0.9,1.3-1.3,1.9c-0.2,0.4-0.5,0.7-0.7,1c-0.2,0.3-0.4,0.7-0.7,1.1c0,0,0,0,0,0
					c-0.1,0.1-0.1,0.2-0.2,0.3c-0.1,0.2-0.1,0.5,0,0.6c0.1,0.1,0.4,0,0.6-0.3c0,0,0-0.1,0.1-0.1c0.4-0.7,0.8-1.4,1.3-2.1
					c0.3-0.5,0.5-1,0.9-1.4c0.1-0.1,0.2-0.4,0.3-0.4c0.2-0.2,0.2-0.3,0.2-0.5c0,0,0-0.1,0.1-0.1c0.2-0.3,0.4-0.6,0.6-0.9
					C103.2,12.3,103,12,102.8,12.1z M95.5,25.1c0.4-0.6,0.8-1.2,1.1-1.8c0.3-0.4,0.5-0.9,0.8-1.3c0.4-0.5,0.5-1,0.9-1.5
					c0.1-0.1,0.1-0.2,0-0.3c-0.1-0.1-0.2-0.1-0.3,0c-0.3,0.3-0.6,0.6-0.8,1c-0.2,0.3-0.4,0.7-0.6,1c-0.2,0.4-0.5,0.8-0.8,1.2
					c-0.3,0.5-0.6,1-0.9,1.5c-0.2,0.3-0.2,0.5,0.1,0.7C95.2,25.4,95.4,25.2,95.5,25.1z M94.1,26.9c-0.2,0.1-0.3,0.2-0.4,0.4
					c0,0.2-0.2,0.3-0.3,0.5c-0.1,0.1-0.1,0.2-0.2,0.3c-0.2,0.3-0.3,0.6-0.5,0.9c-0.2,0.4-0.2,0.4,0.1,0.7c0.4-0.5,0.8-1,1.1-1.6
					c0.1-0.2,0.2-0.5,0.4-0.7C94.3,27.1,94.2,27,94.1,26.9z M104.2,9.1c-0.1,0.3-0.2,0.6-0.3,0.9c0,0,0,0.1,0.1,0.1
					c0,0,0.1-0.1,0.1-0.1c0.2,0,0.4,0,0.5-0.3c0.1-0.2,0.2-0.4,0.2-0.6c0-0.2,0-0.3-0.2-0.4C104.3,8.7,104.2,8.9,104.2,9.1z
					 M98.3,19.1c-0.2,0.2-0.2,0.4,0,0.4c0.2,0,0.4,0,0.5,0c0.1,0,0.3-0.2,0.3-0.2c0-0.1-0.1-0.3-0.1-0.3
					C98.9,18.8,98.5,18.9,98.3,19.1z"/>
				<path fill-rule="evenodd" clip-rule="evenodd" fill="#E86C36" d="M36.9,117.4c0.2-0.3,0.5-0.6,0.7-1c0.2-0.4,0.5-0.7,0.7-1.1
					c0.1-0.2,0.2-0.5,0.3-0.7c-0.2-0.2-0.3-0.2-0.5,0c-0.3,0.3-0.5,0.6-0.8,1c-0.7,0.9-1.1,2-1.7,3c-0.2,0.2-0.3,0.5-0.5,0.8
					c-0.1,0.1-0.2,0.3-0.2,0.5c0,0.1,0.1,0.2,0.1,0.3c0.1,0,0.2,0,0.3,0c0.2-0.3,0.5-0.5,0.6-0.9c0-0.1,0-0.2,0.1-0.2
					C36.2,118.4,36.5,117.9,36.9,117.4z M43.8,106.2c0-0.2-0.1-0.3-0.1-0.4c-0.3,0-0.3,0-0.5,0.2c0,0.1,0,0.1-0.1,0.2
					c-0.4,0.5-0.7,1-1,1.6c-0.1,0.4-0.4,0.7-0.6,1c-0.2,0.3-0.4,0.6-0.5,0.9c0.3,0.1,0.4,0.1,0.5,0c0.2-0.3,0.6-0.6,0.6-1
					c0,0,0,0,0,0c0-0.1,0-0.1,0-0.2c0.1,0,0.2,0,0.3,0c0-0.1,0-0.2,0.1-0.4c0-0.1,0.1-0.3,0.2-0.3c0.2-0.1,0.2-0.2,0.3-0.3
					c0.1-0.2,0.1-0.3,0.3-0.5C43.4,106.6,43.6,106.4,43.8,106.2z M40.5,111.4c-0.1,0-0.3,0-0.4,0.1c-0.3,0.3-0.6,0.6-0.8,1
					c-0.1,0.2,0,0.3,0.1,0.4c0.1,0.1,0.3,0,0.4-0.1c0,0,0.1-0.1,0.1-0.2c0.1-0.2,0.2-0.4,0.4-0.5C40.4,112,40.6,111.7,40.5,111.4z
					 M44.6,103.5c-0.1,0.2,0,0.2,0.1,0.3c0.1,0.1,0.2,0,0.3-0.1c0.1-0.1,0.2-0.2,0.3-0.3c0.2-0.3,0.2-0.5,0-0.6
					c-0.2-0.1-0.4,0-0.6,0.2C44.8,103.3,44.7,103.4,44.6,103.5z M44.4,104.6c-0.3-0.1-0.6,0-0.8,0.7c0.3,0,0.5,0,0.7-0.1
					c0.1,0,0.2-0.1,0.3-0.2C44.6,104.7,44.5,104.6,44.4,104.6z"/>
				<path fill-rule="evenodd" clip-rule="evenodd" fill="#E86C36" d="M120,90.4c-0.3,0.1-0.3,0.3,0.1,0.6c-0.3,0.2-0.3,0.4,0.1,0.6
					c0.3,0.2,0.7,0.3,1,0.4c0.3,0.1,0.6,0.2,0.9,0.3c0.2,0.2,0.5,0.3,0.7,0.4c0.1,0.1,0.2,0.1,0.3,0.2c0.7,0.3,1.4,0.7,2,1
					c0.7,0.3,1.3,0.6,1.8,1c0.1,0.1,0.3,0.2,0.4,0.1c0.2-0.1,0.3,0,0.4,0.1c0.3,0.2,0.5,0.3,0.8,0.4c0.1,0,0.2,0,0.4,0
					c-0.4-0.5-0.9-0.7-1.4-0.8c0-0.2,0-0.3-0.2-0.4c-0.8-0.3-1.4-0.8-2.2-1.1c-0.4-0.2-0.8-0.5-1.3-0.6c-0.1,0-0.1-0.1-0.2-0.2
					c-0.3-0.2-0.5-0.5-0.9-0.4c-0.5-0.4-1-0.8-1.6-1.1c-0.2-0.1-0.4-0.2-0.6-0.4C120.3,90.4,120.1,90.4,120,90.4z M135.1,98.9
					c0.2,0.1,0.4,0.3,0.6,0.4c0.3,0.2,0.5,0.3,0.8,0.4c0.2,0.1,0.4,0.2,0.6,0.3c0.4,0.2,0.8,0.4,1.1,0.6c0.1,0,0.2,0.1,0.2,0.2
					c0.3,0.3,0.4,0.3,0.7,0c-0.2-0.4-0.6-0.5-1-0.6c-0.2-0.2-0.3-0.3-0.5-0.4c-0.5-0.3-1-0.6-1.5-0.9c-0.2-0.1-0.4-0.2-0.6-0.2
					C135.3,98.7,135.2,98.8,135.1,98.9z M116.4,89.2c0.1,0.1,0.3,0.1,0.5,0.3c0-0.2-0.1-0.3,0-0.3c0.1-0.3,0-0.5-0.3-0.6
					c-0.3-0.1-0.6-0.3-0.8-0.5c-0.2-0.1-0.4-0.2-0.6-0.2c-0.1,0-0.2,0-0.3,0.1c0,0,0,0.2,0.1,0.2c0.2,0.3,0.5,0.6,0.9,0.8
					C116,89,116.2,89.1,116.4,89.2z M133.2,97.7c0-0.1-0.1-0.3-0.3-0.4c-0.4-0.2-0.7-0.3-1-0.5c-0.1-0.1-0.3-0.1-0.4-0.2
					c-0.2-0.1-0.3-0.1-0.4,0.1c-0.1,0.1,0,0.3,0.1,0.4c0.2,0.2,0.5,0.3,0.8,0.5c0.2,0.1,0.5,0.1,0.8,0.2
					C133,97.9,133.2,97.9,133.2,97.7z M118.8,90.3c0-0.6-0.2-0.8-0.7-0.8c0,0.2-0.1,0.3,0,0.5c0,0.2,0.2,0.3,0.3,0.3
					C118.5,90.3,118.6,90.3,118.8,90.3z"/>
				<path fill-rule="evenodd" clip-rule="evenodd" fill="#E86C36" d="M21,37.3c-0.3-0.2-0.6-0.3-0.8-0.5c-0.7-0.5-1.5-1-2.4-1.2
					c-0.5-0.1-0.6-0.2-0.7,0.3c0.1,0.1,0.3,0.2,0.4,0.3c0.4,0.2,0.8,0.4,1.2,0.6c0.6,0.3,1.3,0.6,1.9,1c0.5,0.3,0.9,0.6,1.4,0.9
					c0.1,0.1,0.3,0.2,0.5,0.3c0.2,0.1,0.4,0,0.3-0.2c0-0.1-0.1-0.3-0.1-0.4c0.2,0,0.3,0.1,0.4,0.3c0,0.2,0.2,0.3,0.4,0.3
					c0.2-0.3-0.1-0.4-0.3-0.6c-0.3-0.3-0.8-0.4-1.2-0.6C21.7,37.6,21.3,37.5,21,37.3z M6,30.1c0.3,0.1,0.5-0.1,0.3-0.3
					c-0.1-0.1-0.2-0.3-0.4-0.4c-0.4-0.2-0.9-0.4-1.3-0.6c-0.5-0.2-1.1-0.5-1.6-0.7L3,28c-0.6-0.2-1.2-0.5-1.8-0.7
					c-0.1,0-0.2,0-0.3,0.1c0,0,0,0.2,0.1,0.2c0,0.1,0.1,0.1,0.2,0.1c0.6,0.2,1,0.5,1.5,0.8c0.5,0.3,1,0.5,1.5,0.8
					c0.2,0.1,0.4,0.3,0.7,0.3c0.2,0.1,0.4,0,0.6,0.1C5.6,29.8,5.8,30,6,30.1z M12.3,32.9C12.2,33,12.1,33,12.1,33
					c-0.2,0.2-0.2,0.3,0.1,0.4c0.1,0.1,0.2,0.1,0.3,0.1c0.2,0,0.4,0.1,0.5,0.3c0.4,0.3,0.9,0.6,1.5,0.5c0.1,0,0.2-0.1,0.2-0.2
					c0-0.1-0.1-0.2-0.2-0.2c-0.3-0.1-0.6-0.3-0.9-0.4C13.1,33.3,12.7,33.1,12.3,32.9z M10.1,32c-0.1-0.1-0.1-0.2-0.2-0.3
					c-0.1-0.1-0.2-0.1-0.3-0.2c-0.5-0.2-0.9-0.3-1.4-0.5c-0.1,0.3,0,0.5,0.3,0.6c0.4,0.2,0.8,0.3,1.2,0.5C9.8,32.1,9.9,32,10.1,32z
					 M16.2,35.4c0.2,0,0.4-0.1,0.4-0.3c0-0.3-0.4-0.6-0.8-0.6c0,0.2,0,0.3,0,0.5C15.8,35.3,16,35.4,16.2,35.4z"/>
			</g>
		</g>
	</g>
</g>
<g>
	<g>
		<path fill="#E86C36" d="M65.8,93.4h0.3c2.4,0,3,1,3,2.1v0.2c0,0.6-0.3,1.2-1.3,1.4c1.1,0.3,1.5,0.8,1.5,1.4v0.2
			c0,1.2-0.7,2.1-3.2,2.1h-0.3c-1.3,0-2.7-0.1-3.9-0.2v-7.1C63.1,93.5,64.5,93.4,65.8,93.4z M63.8,95.2v1.2h1.9
			c1.7,0,1.7-0.3,1.7-0.6c0-0.3-0.1-0.6-1.6-0.6C65.3,95.1,64.5,95.2,63.8,95.2z M63.8,98.1v1.1c0.7,0.1,1.5,0.1,2,0.1
			c1.7,0,1.8-0.3,1.8-0.6c0-0.3,0-0.5-1.9-0.5H63.8z"/>
		<path fill="#E86C36" d="M77.5,95.3h-4.9v1.1h3.8v1.7h-3.8v1h4.9v1.7h-6.8v-7.1h6.8V95.3z"/>
		<path fill="#E86C36" d="M49.1,109c0-0.5-0.4-0.6-1.7-0.6c-1.1,0-3.4-0.1-3.4-2.2v-0.1c0-1.2,0.8-2.3,3.5-2.3h0.4
			c1,0,1.9,0.1,2.8,0.3v1.7c-1-0.2-2-0.4-3.1-0.4c-1.5,0-1.6,0.3-1.6,0.6c0,0.5,0.5,0.6,1.7,0.6c1,0,3.4,0.1,3.4,2.2v0.1
			c0,1.2-0.8,2.3-3.5,2.3h-0.4c-1.1,0-2.2-0.1-3.2-0.3v-1.8c1.1,0.3,2.4,0.4,3.5,0.4C49,109.7,49.1,109.3,49.1,109z"/>
		<path fill="#E86C36" d="M54.6,111.1v-5.4h-2.7v-1.7h7.4v1.7h-2.8v5.4H54.6z"/>
		<path fill="#E86C36" d="M65.9,111.1l-1.4-2.2c-0.8,0-1.5,0-2.1-0.1v2.3h-1.9v-7.1c1.2-0.1,2.6-0.2,3.9-0.2h0.3c2.4,0,3,1,3,2.3
			v0.4c0,0.9-0.3,1.7-1.2,2.1l1.3,2.1v0.4H65.9z M62.3,105.6v1.5c0.7,0.1,1.3,0.1,1.7,0.1c1.7,0,1.7-0.3,1.7-1c0-0.4,0-0.7-1.4-0.7
			C63.8,105.5,63,105.6,62.3,105.6z"/>
		<path fill="#E86C36" d="M68.9,107.3c0-1.9,0.9-3.5,3.9-3.5h0.4c3.1,0,3.9,1.6,3.9,3.5v0.5c0,1.9-0.9,3.5-3.9,3.5h-0.4
			c-3.1,0-3.9-1.6-3.9-3.5V107.3z M73,109.7c2.2,0,2.2-1,2.2-2.1c0-1.1,0-2.1-2.2-2.1c-2.2,0-2.2,1-2.2,2.1
			C70.8,108.7,70.8,109.7,73,109.7z"/>
		<path fill="#E86C36" d="M84.1,108.6v-4.5H86v7.1h-1.9l-3.7-4.5v4.5h-1.9v-7.1h1.9L84.1,108.6z"/>
		<path fill="#E86C36" d="M95,107.6v3.4c-1,0.2-2.1,0.3-3.2,0.3h-0.4c-3.2,0-4.1-1.6-4.1-3.5v-0.5c0-1.9,0.9-3.5,4.1-3.5h0.4
			c1,0,2,0.1,2.9,0.3v1.7c-1-0.3-2.2-0.4-3-0.4c-2.5,0-2.5,0.9-2.5,2.1c0,1.2,0,2.1,2.5,2.1c0.4,0,0.8,0,1.3-0.1v-2H95z"/>
	</g>
</g>
<g>
	<g>
		<path fill="#E86C36" d="M34.4,33.2v-5.4h-2.7v-1.7H39v1.7h-2.8v5.4H34.4z"/>
		<path fill="#E86C36" d="M45.6,33.2L44.2,31c-0.8,0-1.5,0-2.1-0.1v2.3h-1.9v-7.1c1.2-0.1,2.6-0.2,3.9-0.2h0.3c2.4,0,3,1,3,2.3v0.4
			c0,0.9-0.3,1.7-1.2,2.1l1.3,2.1v0.4H45.6z M42.1,27.7v1.5c0.7,0.1,1.3,0.1,1.7,0.1c1.7,0,1.7-0.3,1.7-1c0-0.4,0-0.7-1.4-0.7
			C43.6,27.6,42.8,27.6,42.1,27.7z"/>
		<path fill="#E86C36" d="M48.5,33.2v-0.4l3.2-6.7h1.9l3.2,6.7v0.4H55l-0.6-1.4h-3.6l-0.6,1.4H48.5z M53.6,30.2l-1.1-2.4l-1.1,2.4
			H53.6z"/>
		<path fill="#E86C36" d="M59.7,26.1v7.1h-1.9v-7.1H59.7z"/>
		<path fill="#E86C36" d="M66.8,30.6v-4.5h1.9v7.1h-1.9l-3.7-4.5v4.5h-1.9v-7.1h1.9L66.8,30.6z"/>
		<path fill="#E86C36" d="M74.8,26.1v2.7h3.7v-2.7h1.9v7.1h-1.9v-2.6h-3.7v2.6h-1.9v-7.1H74.8z"/>
		<path fill="#E86C36" d="M81.5,33.2v-0.4l3.2-6.7h1.9l3.2,6.7v0.4H88l-0.6-1.4h-3.6l-0.6,1.4H81.5z M86.7,30.2l-1.1-2.4l-1.1,2.4
			H86.7z"/>
		<path fill="#E86C36" d="M96.3,33.2L94.9,31c-0.8,0-1.5,0-2.1-0.1v2.3h-1.9v-7.1c1.2-0.1,2.6-0.2,3.9-0.2H95c2.4,0,3,1,3,2.3v0.4
			c0,0.9-0.3,1.7-1.2,2.1l1.3,2.1v0.4H96.3z M92.7,27.7v1.5c0.7,0.1,1.3,0.1,1.7,0.1c1.7,0,1.7-0.3,1.7-1c0-0.4,0-0.7-1.4-0.7
			C94.2,27.6,93.4,27.6,92.7,27.7z"/>
		<path fill="#E86C36" d="M107.2,29.9c0,1.9-0.9,3.5-4.1,3.5h-0.4c-1.1,0-2.2-0.1-3.2-0.2v-7.1c1-0.1,2.1-0.2,3.2-0.2h0.4
			c3.2,0,4.1,1.6,4.1,3.5V29.9z M105.3,29.6c0-1.2,0-2.1-2.5-2.1c-0.4,0-0.8,0-1.3,0v4.1c0.5,0,0.9,0,1.3,0
			C105.3,31.7,105.3,30.8,105.3,29.6z"/>
	</g>
</g>
<g>
	<g>
		<path fill="#FFFFFF" d="M19.8,80.8L19.8,80.8l0-35.1c-1-0.2-2-0.4-2.9-0.6l-0.5-0.1l-0.2-0.5c-1.3-2.7-2.5-5.5-3.8-8.3l-0.9-2
			l2.1,0.6c2.2,0.6,4.5,1.3,6.7,1.8l0.7,0.2c1.9,0.5,3.8,0.9,5.6,1.3l0.8,0.2l0,0c0.1,0,0.3,0.1,0.4,0.1l0.7,0.1
			c1.9,0.4,3.8,0.8,5.7,1.1l0.9,0.2v0l1,0.2c4.4,0.7,8.9,1.3,13.3,1.8l0.8,0.1l1.1,0.1c1.9,0.2,3.8,0.3,5.7,0.4l0.7,0
			c2.3,0.1,4.6,0.2,6.9,0.3l1,0l1,0c1,0,1.9,0,2.9,0c3.5,0,7-0.1,10.5-0.3l1-0.1l1-0.1c4.4-0.3,8.9-0.7,13.4-1.3l1-0.1l0.9-0.1
			c9.5-1.3,19-3.4,28.2-6l2.1-0.6l-0.9,2c-1.2,2.8-2.5,5.6-3.8,8.3l-0.2,0.5l-0.5,0.1c-1,0.2-1.9,0.4-2.9,0.6v44.4l-1.3-0.3
			c-1.9-0.5-3.8-0.9-5.6-1.3l-0.8-0.2v0l-1.1-0.2c-1.9-0.4-3.8-0.8-5.7-1.1l-0.9-0.2v0l-1-0.2c-1.9-0.3-3.8-0.6-5.7-0.9l-0.9-0.1
			l-1-0.1c-1.9-0.2-3.8-0.5-5.7-0.7l-0.9-0.1c-0.1,0-0.1,0-0.2,0l-0.8-0.1c-1.9-0.2-3.8-0.3-5.7-0.4l-1-0.1v0l-0.9,0
			c-1.9-0.1-3.8-0.2-5.7-0.2l-0.7,0l-1.2,0c-1,0-1.9,0-2.9,0c-1,0-1.9,0-2.9,0l-1.1,0v0l-0.9,0c-1.9,0-3.8,0.1-5.7,0.2l-1,0.1
			c-0.1,0-0.2,0-0.4,0l-0.5,0c-1.9,0.1-3.8,0.3-5.7,0.4l-1,0.1v0l-0.9,0.1c-1.9,0.2-3.8,0.4-5.7,0.7l-1,0.1l-0.9,0.1
			c-1.9,0.3-3.8,0.6-5.7,0.9L35,86.9L34.3,87c-2.3,0.4-4.5,0.9-6.8,1.3l0,0l-0.8,0.2c-1.9,0.4-3.7,0.8-5.6,1.3l-1.3,0.5V80.8z
			 M106.5,64.4c1.4,0,2.8,0,4.2,0.1l0.8,0v-0.1H106.5z M27.6,64.5l0.8,0c1.5,0,2.9-0.1,4.4-0.1L27.6,64.5L27.6,64.5z M110.8,55.8
			c-1.3,0.1-2.7,0.2-4.1,0.3c1.3-0.1,2.6-0.1,3.9-0.2l0.9-0.1v-0.1L110.8,55.8z M111.6,47.1c-1.3,0.2-2.7,0.4-4,0.6
			c1-0.1,2-0.3,3-0.4L111.6,47.1L111.6,47.1z"/>
		<path fill="#11242D" d="M125.8,35.9c-1.2,2.9-2.5,5.6-3.7,8.3c-2.1,0.4-4.2,0.8-6.3,1.2c0.9,0.2,1.7,0.4,2.6,0.6
			c0,14.3,0,28.6,0,42.9c-1.9-0.5-3.8-0.9-5.7-1.3c0-13.9,0-27.8,0-41.6c-4,0.6-8,1.2-12.1,1.6c0.9,0.2,1.7,0.4,2.6,0.6
			c0,3.1,0,6.1,0,9.2c2.5-0.1,5.1-0.2,7.6-0.4c0,2.2,0,4.3,0,6.5c-3.4,0-6.8,0-10.2,0c0.9,0.3,1.7,0.6,2.6,0.9c0,7.1,0,14.2,0,21.3
			c-1.9-0.3-3.8-0.6-5.7-0.9c0-14.3,0-28.5,0-42.8C107,40.7,116.4,38.6,125.8,35.9 M13.4,35.9c2.5,0.7,5,1.4,7.5,2c0,0,0,0,0,0
			c1.9,0.5,3.8,0.9,5.7,1.3c0,0,0,0,0,0c0.6,0.1,1.3,0.3,1.9,0.4c0,0,0,0,0,0c1.9,0.4,3.8,0.8,5.7,1.1c0,0,0,0,0,0c0,0,0,0,0,0
			c0,2.1,0,4.1,0,6.2c0,0,0,0,0,0c0,5.5,0,11,0,16.4c-1.9,0-3.8,0-5.7,0c0-5.7,0-11.5,0-17.2c-1.5-0.2-3-0.5-4.5-0.7
			c0.9,0.5,1.7,1,2.6,1.4c0,11.4,0,22.7,0,34.1c0.6-0.1,1.3-0.2,1.9-0.3c0-5,0-10.1,0-15.1c1.9,0,3.8-0.1,5.7-0.1
			c0,6.8,0,13.7,0,20.5c-2.5,0.5-5.1,1-7.6,1.5c0,0,0,0,0,0c-1.9,0.4-3.8,0.9-5.7,1.3c0,0,0,0,0,0c0,0,0,0,0,0c0-2.3,0-4.6,0-6.9
			c0,0,0,0,0,0c0-12.3,0-24.7,0-37c-1.3-0.2-2.5-0.5-3.8-0.7C15.9,41.5,14.6,38.8,13.4,35.9 M36,41.1c4.4,0.8,8.9,1.4,13.4,1.8
			c0,6.2,0,12.4,0,18.6c0,0,0,0,0,0c0,0.6,0,1.2,0,1.9c-2.6,0-5.1,0-7.7,0c0,0.3,0,0.6,0,0.9c0,0.4,0,0.7,0,1.1c0.6,0,1.3,0,1.9,0
			c0,0,0,0,0,0c1.9,0,3.8,0,5.7-0.1c0,6.2,0,12.4,0,18.6c-1.9,0.2-3.8,0.4-5.7,0.7c0-4.5,0-9,0-13.4c-1.5,0.1-3,0.1-4.5,0.2
			c0.9,0.3,1.7,0.5,2.6,0.8c0,4.2,0,8.5,0,12.7c-1.9,0.3-3.8,0.6-5.7,0.9c0-4.7,0-9.4,0-14.2c0,0,0,0,0,0c0-2,0-4,0-6.1c0,0,0,0,0,0
			C36,57.3,36,49.2,36,41.1 M43.6,57.6c0-3.2,0-6.4,0-9.6c-1.5-0.1-3-0.3-4.5-0.5c0.9,0.4,1.7,0.8,2.6,1.2c0,2.9,0,5.9,0,8.8
			C42.4,57.6,43,57.6,43.6,57.6 M95.5,42.2c0,4.5,0,9,0,13.5c-1.9,0.1-3.8,0.2-5.7,0.2c0-2.5,0-5,0-7.4c-1.5,0.1-3,0.2-4.5,0.3
			c0.9,0.2,1.7,0.5,2.6,0.7c0,2.8,0,5.6,0,8.4c0.6,0,1.3,0,1.9-0.1c0,0,0,0,0,0c1.9-0.1,3.8-0.1,5.7-0.2c0,9,0,17.9,0,26.9
			c-1.9-0.2-3.8-0.5-5.7-0.7c0,0,0,0,0,0c-0.6-0.1-1.3-0.1-1.9-0.2c0,0,0,0,0,0c-1.9-0.2-3.8-0.3-5.8-0.4c0-6,0-12,0-18
			c1.9,0,3.8,0,5.8,0c0,4.3,0,8.6,0,12.9c0.6,0,1.3,0.1,1.9,0.1c0-5,0-9.9,0-14.9c-2.6,0-5.1,0-7.7,0c0-1.8,0-3.6,0-5.4c0,0,0,0,0,0
			c0-4.8,0-9.6,0-14.4C86.6,43.3,91,42.8,95.5,42.2 M51.3,43.1c1.9,0.2,3.8,0.3,5.8,0.4c0,0,0,0,0,0c2.6,0.2,5.1,0.3,7.7,0.3
			c0,13,0,26,0,39c-1.9,0-3.8,0.1-5.8,0.2c0,0,0,0,0,0c-0.6,0-1.3,0.1-1.9,0.1c0,0,0,0,0,0c-1.9,0.1-3.8,0.3-5.8,0.4
			C51.3,70.1,51.3,56.6,51.3,43.1 M57.1,77.8c0.6,0,1.3-0.1,1.9-0.1c0-9.6,0-19.1,0-28.7c-1.5-0.1-3-0.1-4.5-0.2
			c0.9,0.3,1.7,0.6,2.6,1C57.1,59.1,57.1,68.5,57.1,77.8 M80.2,43.6c0,4.2,0,8.4,0,12.6c-1.9,0-3.8,0.1-5.8,0.1c0-2.4,0-4.7,0-7.1
			c-1.5,0-3,0-4.5,0c0.9,0.3,1.7,0.5,2.6,0.8c0,2.7,0,5.4,0,8.1c0.6,0,1.3,0,1.9,0c0,0,0,0,0,0c1.9,0,3.8,0,5.8-0.1
			c0,8.4,0,16.7,0,25.1c-1.9-0.1-3.8-0.2-5.8-0.2c0,0,0,0,0,0c-0.6,0-1.3,0-1.9,0c0,0,0,0,0,0c-1,0-1.9,0-2.9,0s-1.9,0-2.9,0
			c0-5.9,0-11.8,0-17.7c1,0,1.9,0,2.9,0s1.9,0,2.9,0c0,4.1,0,8.3,0,12.4c0.6,0,1.3,0,1.9,0c0-4.7,0-9.5,0-14.2c-2.6,0-5.1,0-7.7,0
			c0-1.8,0-3.5,0-5.3c0,0,0,0,0,0c0,0,0,0,0,0c0-4.7,0-9.4,0-14.2c1,0,1.9,0,2.9,0C73.1,43.9,76.6,43.8,80.2,43.6 M110.7,48.3
			c0,2.2,0,4.3,0,6.5c-1.9,0.1-3.8,0.3-5.7,0.4c0-2.1,0-4.1,0-6.2C106.9,48.8,108.8,48.5,110.7,48.3 M105,65.4
			c1.9,0,3.8,0.1,5.7,0.1c0,7.2,0,14.4,0,21.6c-1.9-0.4-3.8-0.8-5.7-1.1C105,79.1,105,72.3,105,65.4 M129.5,32.7l-4.3,1.2
			c-9.2,2.7-18.6,4.7-28.1,6l-0.9,0.1l-0.9,0.1c-4.4,0.6-8.9,1-13.3,1.3l-1,0.1l-0.9,0c-3.5,0.2-7,0.3-10.5,0.3c-0.9,0-1.9,0-2.9,0
			l-1,0l-1,0c-2.3-0.1-4.7-0.2-7-0.3l-0.6,0c-1.9-0.1-3.8-0.3-5.7-0.4l-1.1-0.1l-0.8-0.1c-4.4-0.4-8.9-1-13.2-1.8l-1.1-0.2l-0.8-0.1
			c-1.9-0.3-3.8-0.7-5.6-1.1l-0.9-0.2L27,37.2c-1.9-0.4-3.7-0.8-5.6-1.3l-1.1-0.3c-2.1-0.5-4.3-1.1-6.3-1.7l-4.3-1.2l1.8,4.1
			c1.2,2.8,2.5,5.6,3.8,8.3l0.4,1l1,0.2c0.7,0.1,1.4,0.3,2.1,0.4v33.2h0v2.1v6.9v3.1l2.7-1.1l0,0l0,0c1.8-0.5,3.7-0.9,5.5-1.3
			l1.1-0.2c2.1-0.5,4.3-0.9,6.4-1.3l0.7-0.1l1.2-0.2c1.9-0.3,3.8-0.6,5.7-0.9l0.9-0.1l1-0.1c1.9-0.2,3.8-0.5,5.7-0.7l1.1-0.1
			l0.8-0.1c1.9-0.2,3.8-0.3,5.7-0.4l0.8,0c0.1,0,0.2,0,0.3,0l0.8,0c1.9-0.1,3.8-0.2,5.7-0.2l0.7,0l1.2,0c0.9,0,1.9,0,2.9,0
			c0.9,0,1.9,0,2.9,0l1.3,0l0.6,0c1.9,0,3.8,0.1,5.7,0.2l0.7,0l1.2,0.1c1.9,0.1,3.8,0.3,5.7,0.4l1.3,0.1l0.6,0.1
			c1.9,0.2,3.8,0.4,5.7,0.7l1,0.1l0.9,0.1c1.9,0.3,3.8,0.6,5.7,0.9l0.9,0.2l0.9,0.2c1.9,0.3,3.8,0.7,5.6,1.1l0.9,0.2l0.9,0.2
			c1.9,0.4,3.7,0.8,5.6,1.3l2.6,0.6v-2.7V46.6c0.7-0.1,1.4-0.3,2.1-0.4l1-0.2l0.4-1c1.3-2.7,2.5-5.5,3.8-8.3L129.5,32.7L129.5,32.7z
			"/>
		<path fill="none" stroke="#11242D" stroke-width="0.8668" stroke-miterlimit="10" d="M34.1,40.8c-1.9-0.3-3.8-0.7-5.7-1.1
			c0,0,0,0,0,0c-0.6-0.1-1.3-0.3-1.9-0.4c0,0,0,0,0,0c-1.9-0.4-3.8-0.9-5.7-1.3c0,0,0,0,0,0c-2.5-0.6-5-1.3-7.5-2
			c1.2,2.9,2.5,5.6,3.7,8.3c1.2,0.2,2.5,0.5,3.8,0.7c0,12.3,0,24.7,0,37c0,0,0,0,0,0c0,2.3,0,4.6,0,6.9c0,0,0,0,0,0c0,0,0,0,0,0
			c1.9-0.5,3.8-0.9,5.7-1.3c0,0,0,0,0,0c2.5-0.6,5-1.1,7.6-1.5c0-6.8,0-13.7,0-20.5c-1.9,0-3.8,0.1-5.7,0.1c0,5,0,10.1,0,15.1
			c-0.6,0.1-1.3,0.2-1.9,0.3c0-11.4,0-22.7,0-34.1c-0.9-0.5-1.7-0.9-2.6-1.4c1.5,0.3,3,0.5,4.5,0.7c0,5.7,0,11.5,0,17.2
			c1.9,0,3.8,0,5.7,0c0-5.5,0-11,0-16.4c0,0,0,0,0,0C34.1,44.9,34.1,42.8,34.1,40.8C34.1,40.8,34.1,40.8,34.1,40.8
			C34.1,40.8,34.1,40.8,34.1,40.8z M36,65.4C36,65.4,36,65.4,36,65.4c0,2,0,4,0,6.1c0,0,0,0,0,0c0,4.7,0,9.4,0,14.2
			c1.9-0.3,3.8-0.6,5.7-0.9c0-4.2,0-8.5,0-12.7c-0.9-0.2-1.7-0.5-2.6-0.8c1.5-0.1,3-0.2,4.5-0.2c0,4.5,0,9,0,13.4
			c1.9-0.2,3.8-0.5,5.7-0.7c0-6.2,0-12.4,0-18.6c-1.9,0-3.8,0-5.7,0.1c0,0,0,0,0,0c-0.6,0-1.3,0-1.9,0c0-0.4,0-0.7,0-1.1
			c0-0.3,0-0.6,0-0.9c2.5,0,5.1,0,7.7,0c0-0.6,0-1.2,0-1.9c0,0,0,0,0,0c0-6.2,0-12.4,0-18.6c-4.5-0.5-8.9-1.1-13.4-1.8
			C36,49.2,36,57.3,36,65.4z M39.1,47.5c1.5,0.2,3,0.3,4.5,0.5c0,3.2,0,6.4,0,9.6c-0.6,0-1.3,0-1.9-0.1c0-2.9,0-5.9,0-8.8
			C40.9,48.3,40,47.9,39.1,47.5z M59,49c0,9.6,0,19.1,0,28.7c-0.6,0-1.3,0.1-1.9,0.1c0-9.3,0-18.7,0-28c-0.9-0.3-1.7-0.6-2.6-1
			C56,48.9,57.5,49,59,49z M57.1,43.5c-1.9-0.1-3.8-0.3-5.8-0.4c0,13.5,0,27.1,0,40.6c1.9-0.2,3.8-0.3,5.8-0.4c0,0,0,0,0,0
			c0.6,0,1.3-0.1,1.9-0.1c0,0,0,0,0,0c1.9-0.1,3.8-0.2,5.8-0.2c0-13,0-26,0-39C62.2,43.8,59.6,43.7,57.1,43.5
			C57.1,43.5,57.1,43.5,57.1,43.5z M66.7,58.1C66.7,58.1,66.7,58.1,66.7,58.1c0,1.8,0,3.5,0,5.3c2.6,0,5.1,0,7.7,0
			c0,4.7,0,9.5,0,14.2c-0.6,0-1.3,0-1.9,0c0-4.1,0-8.3,0-12.4c-1.9,0-3.8,0-5.8,0c0,5.9,0,11.8,0,17.7c1.9,0,3.8,0,5.8,0
			c0,0,0,0,0,0c0.6,0,1.3,0,1.9,0c0,0,0,0,0,0c1.9,0,3.8,0.1,5.8,0.2c0-8.4,0-16.7,0-25.1c-1.9,0-3.8,0-5.8,0.1c0,0,0,0,0,0
			c-0.6,0-1.3,0-1.9,0c0-2.7,0-5.4,0-8.1c-0.9-0.3-1.7-0.5-2.6-0.8c1.5,0,3,0,4.5,0c0,2.4,0,4.7,0,7.1c1.9,0,3.8,0,5.8-0.1
			c0-4.2,0-8.4,0-12.6c-4.5,0.2-9,0.3-13.5,0.3C66.7,48.6,66.7,53.4,66.7,58.1z M105,55.2c1.9-0.1,3.8-0.3,5.7-0.4
			c0-2.2,0-4.3,0-6.5c-1.9,0.3-3.8,0.5-5.7,0.7C105,51.1,105,53.1,105,55.2z M82.1,58C82.1,58,82.1,58,82.1,58c0,1.8,0,3.6,0,5.4
			c2.6,0,5.1,0,7.7,0c0,5,0,9.9,0,14.9c-0.6,0-1.3-0.1-1.9-0.1c0-4.3,0-8.6,0-12.9c-1.9,0-3.8,0-5.8,0c0,6,0,12,0,18
			c1.9,0.1,3.8,0.3,5.8,0.4c0,0,0,0,0,0c0.6,0.1,1.3,0.1,1.9,0.2c0,0,0,0,0,0c1.9,0.2,3.8,0.4,5.7,0.7c0-9,0-17.9,0-26.9
			c-1.9,0.1-3.8,0.1-5.7,0.2c0,0,0,0,0,0c-0.6,0-1.3,0-1.9,0.1c0-2.8,0-5.6,0-8.4c-0.9-0.2-1.7-0.4-2.6-0.7c1.5-0.1,3-0.2,4.5-0.3
			c0,2.5,0,5,0,7.4c1.9-0.1,3.8-0.2,5.7-0.2c0-4.5,0-9,0-13.5c-4.5,0.6-8.9,1-13.4,1.3C82.1,48.3,82.1,53.2,82.1,58z M105,86
			c1.9,0.3,3.8,0.7,5.7,1.1c0-7.2,0-14.4,0-21.6c-1.9,0-3.8-0.1-5.7-0.1C105,72.3,105,79.1,105,86z M97.4,42c0,14.3,0,28.5,0,42.8
			c1.9,0.3,3.8,0.6,5.7,0.9c0-7.1,0-14.2,0-21.3c-0.9-0.3-1.7-0.6-2.6-0.9c3.4,0,6.8,0,10.2,0c0-2.2,0-4.3,0-6.5
			c-2.5,0.1-5.1,0.3-7.6,0.4c0-3.1,0-6.1,0-9.2c-0.9-0.2-1.7-0.4-2.6-0.6c4-0.5,8.1-1,12.1-1.6c0,13.9,0,27.8,0,41.6
			c1.9,0.4,3.8,0.9,5.7,1.3c0-14.3,0-28.6,0-42.9c-0.9-0.2-1.7-0.4-2.6-0.6c2.1-0.4,4.2-0.7,6.3-1.2c1.2-2.6,2.5-5.4,3.7-8.3
			C116.4,38.6,107,40.7,97.4,42z"/>
	</g>
</g>
<g>
	<polygon fill="#E86C36" points="43,100.2 53.6,100.2 48.4,99.3 53.6,94.1 23.2,94.1 45.5,97.7 	"/>
	<polygon fill="#E86C36" points="96.2,100.2 85.5,100.2 90.8,99.3 85.5,94.1 116,94.1 93.6,97.7 	"/>
</g>
<polygon fill="#E86C36" points="76.2,13.7 73.5,16.5 69.6,12.1 65.7,16.5 62.9,13.7 62.9,20.3 69.5,20.3 69.5,20.3 69.6,20.3 
	69.6,20.3 76.2,20.3 76.2,20.3 "/>
</svg>
